<svg xmlns="http://www.w3.org/2000/svg" fill="none" viewBox="0 0 179 25">
  <mask id="a" width="178" height="24" x="1" y="1" fill="currentColor" maskUnits="userSpaceOnUse">
    <path fill="#fff" d="M1 1h178v24H1z"/>
    <path d="M8.25 23H3V4.58h11.89l2.86 2.87v6.81l-3.49 3.5H8.25zm0-9.71h3.67l.58-.58v-3.4H8.25zM25.33 6.95h-5.1V3h5.1zm0 16.05h-5.1V8.53h5.1zM32.64 23h-5.09v-3.42l3.94-3.87-3.8-3.76V8.53h5.08v2.36l1.82 1.77 1.78-1.77V8.53h5.1v3.42l-3.81 3.76 3.93 3.87V23H36.5v-2.37l-1.91-1.9-1.95 1.9zM52.22 18.95v-1.16h4.88v2.34L54.24 23h-7.7l-2.85-2.87V11.4l2.86-2.86h7.69l2.86 2.86v5.3h-8.43v2.26zm0-6.37h-3.55v1.84h3.55zM64.83 23h-5.1V3.26h5.1zM80.78 11.4V23h-4.23v-1.79L74.77 23H70.3l-2.86-2.87V17.5l2.86-2.87h5.59v-1.79h-3.44v.8h-4.78v-2.25l2.86-2.86h7.38zm-4.88 5.7h-3.57v2h2.96l.6-.47zM88.77 23h-5.1V8.53h4.47v2.05l2.05-2.05h3.15v4.9h-3.97l-.6.52zM104.87 23h-6.1l-2.85-2.87v-7.66h-1.79V8.53h1.79v-3.3H101v3.3h3.75v3.94h-3.75v5.8h3.86zM112.58 6.95h-5.09V3h5.1zm0 16.05h-5.09V8.53h5.1zM123.57 18.42v-1.74h4.89v3.45L125.59 23h-7.4l-2.86-2.87V11.4l2.86-2.86h7.4l2.87 2.86v3.45h-4.89v-1.73h-3.25v5.31zM133.67 8.53h8.14l2.86 2.86v8.74L141.81 23h-8.14l-2.86-2.87V11.4zm5.91 9.9V13.1h-3.68v5.31zM152.52 23h-5.1V8.53h4.47v1.79l1.78-1.8h4.75l2.87 2.87V23h-5.1v-9.74h-3.07l-.6.53zM171.96 19.37v-.84l-8.32-3.16v-3.98l2.86-2.86h7.38l2.86 2.86v1.85H172v-1.08h-3.33V13l8.32 3.16v3.97L174.14 23h-7.64l-2.86-2.87V18.3h4.72v1.08z"/>
  </mask>
  <path fill="currentColor" d="M8.25 23H3V4.58h11.89l2.86 2.87v6.81l-3.49 3.5H8.25zm0-9.71h3.67l.58-.58v-3.4H8.25zM25.33 6.95h-5.1V3h5.1zm0 16.05h-5.1V8.53h5.1zM32.64 23h-5.09v-3.42l3.94-3.87-3.8-3.76V8.53h5.08v2.36l1.82 1.77 1.78-1.77V8.53h5.1v3.42l-3.81 3.76 3.93 3.87V23H36.5v-2.37l-1.91-1.9-1.95 1.9zM52.22 18.95v-1.16h4.88v2.34L54.24 23h-7.7l-2.85-2.87V11.4l2.86-2.86h7.69l2.86 2.86v5.3h-8.43v2.26zm0-6.37h-3.55v1.84h3.55zM64.83 23h-5.1V3.26h5.1zM80.78 11.4V23h-4.23v-1.79L74.77 23H70.3l-2.86-2.87V17.5l2.86-2.87h5.59v-1.79h-3.44v.8h-4.78v-2.25l2.86-2.86h7.38zm-4.88 5.7h-3.57v2h2.96l.6-.47zM88.77 23h-5.1V8.53h4.47v2.05l2.05-2.05h3.15v4.9h-3.97l-.6.52zM104.87 23h-6.1l-2.85-2.87v-7.66h-1.79V8.53h1.79v-3.3H101v3.3h3.75v3.94h-3.75v5.8h3.86zM112.58 6.95h-5.09V3h5.1zm0 16.05h-5.09V8.53h5.1zM123.57 18.42v-1.74h4.89v3.45L125.59 23h-7.4l-2.86-2.87V11.4l2.86-2.86h7.4l2.87 2.86v3.45h-4.89v-1.73h-3.25v5.31zM133.67 8.53h8.14l2.86 2.86v8.74L141.81 23h-8.14l-2.86-2.87V11.4zm5.91 9.9V13.1h-3.68v5.31zM152.52 23h-5.1V8.53h4.47v1.79l1.78-1.8h4.75l2.87 2.87V23h-5.1v-9.74h-3.07l-.6.53zM171.96 19.37v-.84l-8.32-3.16v-3.98l2.86-2.86h7.38l2.86 2.86v1.85H172v-1.08h-3.33V13l8.32 3.16v3.97L174.14 23h-7.64l-2.86-2.87V18.3h4.72v1.08z"/>
  <path stroke="currentColor" stroke-width="3.7" d="M8.25 23H3V4.58h11.89l2.86 2.87v6.81l-3.49 3.5H8.25zm0-9.71h3.67l.58-.58v-3.4H8.25z" mask="url(#a)"/>
  <path stroke="currentColor" stroke-width="3.7" d="M25.33 6.95h-5.1V3h5.1zm0 16.05h-5.1V8.53h5.1z" mask="url(#a)"/>
  <path stroke="currentColor" stroke-width="3.7" d="M32.64 23h-5.09v-3.42l3.94-3.87-3.8-3.76V8.53h5.08v2.36l1.82 1.77 1.78-1.77V8.53h5.1v3.42l-3.81 3.76 3.93 3.87V23H36.5v-2.37l-1.91-1.9-1.95 1.9z" mask="url(#a)"/>
  <path stroke="currentColor" stroke-width="3.7" d="M52.22 18.95v-1.16h4.88v2.34L54.24 23h-7.7l-2.85-2.87V11.4l2.86-2.86h7.69l2.86 2.86v5.3h-8.43v2.26zm0-6.37h-3.55v1.84h3.55z" mask="url(#a)"/>
  <path stroke="currentColor" stroke-width="3.7" d="M64.83 23h-5.1V3.26h5.1z" mask="url(#a)"/>
  <path stroke="currentColor" stroke-width="3.7" d="M80.78 11.4V23h-4.23v-1.79L74.77 23H70.3l-2.86-2.87V17.5l2.86-2.87h5.59v-1.79h-3.44v.8h-4.78v-2.25l2.86-2.86h7.38zm-4.88 5.7h-3.57v2h2.96l.6-.47z" mask="url(#a)"/>
  <path stroke="currentColor" stroke-width="3.7" d="M88.77 23h-5.1V8.53h4.47v2.05l2.05-2.05h3.15v4.9h-3.97l-.6.52z" mask="url(#a)"/>
  <path stroke="currentColor" stroke-width="3.7" d="M104.87 23h-6.1l-2.85-2.87v-7.66h-1.79V8.53h1.79v-3.3H101v3.3h3.75v3.94h-3.75v5.8h3.86z" mask="url(#a)"/>
  <path stroke="currentColor" stroke-width="3.7" d="M112.58 6.95h-5.09V3h5.1zm0 16.05h-5.09V8.53h5.1z" mask="url(#a)"/>
  <path stroke="currentColor" stroke-width="3.7" d="M123.57 18.42v-1.74h4.89v3.45L125.59 23h-7.4l-2.86-2.87V11.4l2.86-2.86h7.4l2.87 2.86v3.45h-4.89v-1.73h-3.25v5.31z" mask="url(#a)"/>
  <path stroke="currentColor" stroke-width="3.7" d="M133.67 8.53h8.14l2.86 2.86v8.74L141.81 23h-8.14l-2.86-2.87V11.4zm5.91 9.9V13.1h-3.68v5.31z" mask="url(#a)"/>
  <path stroke="currentColor" stroke-width="3.7" d="M152.52 23h-5.1V8.53h4.47v1.79l1.78-1.8h4.75l2.87 2.87V23h-5.1v-9.74h-3.07l-.6.53z" mask="url(#a)"/>
  <path stroke="currentColor" stroke-width="3.7" d="M171.96 19.37v-.84l-8.32-3.16v-3.98l2.86-2.86h7.38l2.86 2.86v1.85H172v-1.08h-3.33V13l8.32 3.16v3.97L174.14 23h-7.64l-2.86-2.87V18.3h4.72v1.08z" mask="url(#a)"/>
  <mask id="b" width="178" height="24" x="0" y="0" fill="currentColor" maskUnits="userSpaceOnUse">
    <path fill="#fff" d="M0 0h178v24H0z"/>
    <path d="M7.25 22H2V3.58h11.89l2.86 2.87v6.81l-3.49 3.5H7.25zm0-9.71h3.67l.58-.58v-3.4H7.25zM24.33 5.95h-5.1V2h5.1zm0 16.05h-5.1V7.53h5.1zM31.64 22h-5.09v-3.42l3.94-3.87-3.8-3.76V7.53h5.08v2.36l1.82 1.77 1.78-1.77V7.53h5.1v3.42l-3.81 3.76 3.93 3.87V22H35.5v-2.37l-1.91-1.9-1.95 1.9zM51.22 17.95v-1.16h4.88v2.34L53.24 22h-7.7l-2.85-2.87V10.4l2.86-2.86h7.69l2.86 2.86v5.3h-8.43v2.26zm0-6.37h-3.55v1.84h3.55zM63.83 22h-5.1V2.26h5.1zM79.78 10.4V22h-4.23v-1.79L73.77 22H69.3l-2.86-2.87V16.5l2.86-2.87h5.59v-1.79h-3.44v.8h-4.78v-2.25l2.86-2.86h7.38zm-4.88 5.7h-3.57v2h2.96l.6-.47zM87.77 22h-5.1V7.53h4.47v2.05l2.05-2.05h3.15v4.9h-3.97l-.6.52zM103.87 22h-6.1l-2.85-2.87v-7.66h-1.79V7.53h1.79v-3.3H100v3.3h3.75v3.94h-3.75v5.8h3.86zM111.58 5.95h-5.09V2h5.1zm0 16.05h-5.09V7.53h5.1zM122.57 17.42v-1.74h4.89v3.45L124.59 22h-7.4l-2.86-2.87V10.4l2.86-2.86h7.4l2.86 2.86v3.45h-4.88v-1.73h-3.25v5.31zM132.67 7.53h8.14l2.86 2.86v8.74L140.81 22h-8.14l-2.86-2.87V10.4zm5.91 9.9V12.1h-3.68v5.31zM151.52 22h-5.1V7.53h4.47v1.79l1.78-1.8h4.75l2.87 2.87V22h-5.1v-9.74h-3.07l-.6.53zM170.96 18.37v-.84l-8.32-3.16v-3.98l2.86-2.86h7.38l2.86 2.86v1.85H171v-1.08h-3.33V12l8.32 3.16v3.97L173.14 22h-7.64l-2.86-2.87V17.3h4.72v1.08z"/>
  </mask>
  <path fill="#fff" d="M7.25 22H2V3.58h11.89l2.86 2.87v6.81l-3.49 3.5H7.25zm0-9.71h3.67l.58-.58v-3.4H7.25zM24.33 5.95h-5.1V2h5.1zm0 16.05h-5.1V7.53h5.1zM31.64 22h-5.09v-3.42l3.94-3.87-3.8-3.76V7.53h5.08v2.36l1.82 1.77 1.78-1.77V7.53h5.1v3.42l-3.81 3.76 3.93 3.87V22H35.5v-2.37l-1.91-1.9-1.95 1.9zM51.22 17.95v-1.16h4.88v2.34L53.24 22h-7.7l-2.85-2.87V10.4l2.86-2.86h7.69l2.86 2.86v5.3h-8.43v2.26zm0-6.37h-3.55v1.84h3.55zM63.83 22h-5.1V2.26h5.1zM79.78 10.4V22h-4.23v-1.79L73.77 22H69.3l-2.86-2.87V16.5l2.86-2.87h5.59v-1.79h-3.44v.8h-4.78v-2.25l2.86-2.86h7.38zm-4.88 5.7h-3.57v2h2.96l.6-.47zM87.77 22h-5.1V7.53h4.47v2.05l2.05-2.05h3.15v4.9h-3.97l-.6.52zM103.87 22h-6.1l-2.85-2.87v-7.66h-1.79V7.53h1.79v-3.3H100v3.3h3.75v3.94h-3.75v5.8h3.86zM111.58 5.95h-5.09V2h5.1zm0 16.05h-5.09V7.53h5.1zM122.57 17.42v-1.74h4.89v3.45L124.59 22h-7.4l-2.86-2.87V10.4l2.86-2.86h7.4l2.86 2.86v3.45h-4.88v-1.73h-3.25v5.31zM132.67 7.53h8.14l2.86 2.86v8.74L140.81 22h-8.14l-2.86-2.87V10.4zm5.91 9.9V12.1h-3.68v5.31zM151.52 22h-5.1V7.53h4.47v1.79l1.78-1.8h4.75l2.87 2.87V22h-5.1v-9.74h-3.07l-.6.53zM170.96 18.37v-.84l-8.32-3.16v-3.98l2.86-2.86h7.38l2.86 2.86v1.85H171v-1.08h-3.33V12l8.32 3.16v3.97L173.14 22h-7.64l-2.86-2.87V17.3h4.72v1.08z"/>
  <path stroke="currentColor" stroke-width="3.7" d="M7.25 22H2V3.58h11.89l2.86 2.87v6.81l-3.49 3.5H7.25zm0-9.71h3.67l.58-.58v-3.4H7.25z" mask="url(#b)"/>
  <path stroke="currentColor" stroke-width="3.7" d="M24.33 5.95h-5.1V2h5.1zm0 16.05h-5.1V7.53h5.1z" mask="url(#b)"/>
  <path stroke="currentColor" stroke-width="3.7" d="M31.64 22h-5.09v-3.42l3.94-3.87-3.8-3.76V7.53h5.08v2.36l1.82 1.77 1.78-1.77V7.53h5.1v3.42l-3.81 3.76 3.93 3.87V22H35.5v-2.37l-1.91-1.9-1.95 1.9z" mask="url(#b)"/>
  <path stroke="currentColor" stroke-width="3.7" d="M51.22 17.95v-1.16h4.88v2.34L53.24 22h-7.7l-2.85-2.87V10.4l2.86-2.86h7.69l2.86 2.86v5.3h-8.43v2.26zm0-6.37h-3.55v1.84h3.55z" mask="url(#b)"/>
  <path stroke="currentColor" stroke-width="3.7" d="M63.83 22h-5.1V2.26h5.1z" mask="url(#b)"/>
  <path stroke="currentColor" stroke-width="3.7" d="M79.78 10.4V22h-4.23v-1.79L73.77 22H69.3l-2.86-2.87V16.5l2.86-2.87h5.59v-1.79h-3.44v.8h-4.78v-2.25l2.86-2.86h7.38zm-4.88 5.7h-3.57v2h2.96l.6-.47z" mask="url(#b)"/>
  <path stroke="currentColor" stroke-width="3.7" d="M87.77 22h-5.1V7.53h4.47v2.05l2.05-2.05h3.15v4.9h-3.97l-.6.52z" mask="url(#b)"/>
  <path stroke="currentColor" stroke-width="3.7" d="M103.87 22h-6.1l-2.85-2.87v-7.66h-1.79V7.53h1.79v-3.3H100v3.3h3.75v3.94h-3.75v5.8h3.86z" mask="url(#b)"/>
  <path stroke="currentColor" stroke-width="3.7" d="M111.58 5.95h-5.09V2h5.1zm0 16.05h-5.09V7.53h5.1z" mask="url(#b)"/>
  <path stroke="currentColor" stroke-width="3.7" d="M122.57 17.42v-1.74h4.89v3.45L124.59 22h-7.4l-2.86-2.87V10.4l2.86-2.86h7.4l2.86 2.86v3.45h-4.88v-1.73h-3.25v5.31z" mask="url(#b)"/>
  <path stroke="currentColor" stroke-width="3.7" d="M132.67 7.53h8.14l2.86 2.86v8.74L140.81 22h-8.14l-2.86-2.87V10.4zm5.91 9.9V12.1h-3.68v5.31z" mask="url(#b)"/>
  <path stroke="currentColor" stroke-width="3.7" d="M151.52 22h-5.1V7.53h4.47v1.79l1.78-1.8h4.75l2.87 2.87V22h-5.1v-9.74h-3.07l-.6.53z" mask="url(#b)"/>
  <path stroke="currentColor" stroke-width="3.7" d="M170.96 18.37v-.84l-8.32-3.16v-3.98l2.86-2.86h7.38l2.86 2.86v1.85H171v-1.08h-3.33V12l8.32 3.16v3.97L173.14 22h-7.64l-2.86-2.87V17.3h4.72v1.08z" mask="url(#b)"/>
</svg>
