<svg width="24" height="24" viewBox="0 0 24 24" fill="none" xmlns="http://www.w3.org/2000/svg">
<rect x="10" y="5" width="12" height="2" fill="black"/>
<rect x="10" y="9" width="12" height="2" fill="black"/>
<rect x="10" y="13" width="12" height="2" fill="black"/>
<rect x="10" y="17" width="12" height="2" fill="black"/>
<path fill-rule="evenodd" clip-rule="evenodd" d="M2 11V9V7L2 5H4H6H8V7V9V11H6H4H2ZM6 9L6 7H4L4 9H6Z" fill="black"/>
<path fill-rule="evenodd" clip-rule="evenodd" d="M6 13H4H2V15V17V19H4H6H8V17V15V13H6ZM6 15H4L4 17H6L6 15Z" fill="black"/>
</svg>
