<svg width="24" height="24" fill="none" xmlns="http://www.w3.org/2000/svg"><path fill-rule="evenodd" clip-rule="evenodd" d="M9 3H7v2H2v16h20V5h-5v2h3v12H4V7h5V5h6v2h2V3H9z" fill="currentColor"/><path fill="currentColor" d="M2 5h7v2H2z"/><path fill="currentColor" d="M7 3h2v4H7zM15 3h2v4h-2z"/><path fill="currentColor" d="M7 3h10v2H7zM15 5h7v2h-7zM2 5h2v16H2z"/><path fill="currentColor" d="M2 19h20v2H2z"/><path fill="currentColor" d="M20 5h2v16h-2zM10 9h4v2h-4zM10 15h4v2h-4zM8 11h2v4H8zM14 11h2v4h-2z"/></svg>