<svg width="24" height="24" viewBox="0 0 24 24" fill="none" xmlns="http://www.w3.org/2000/svg">
<rect x="1" y="12" width="2" height="2" fill="black"/>
<rect x="3" y="14" width="2" height="2" fill="black"/>
<rect x="5" y="16" width="2" height="2" fill="black"/>
<rect width="2" height="2" transform="matrix(-1 0 0 1 13 10)" fill="black"/>
<rect width="2" height="2" transform="matrix(-1 0 0 1 15 8)" fill="black"/>
<rect width="2" height="2" transform="matrix(-1 0 0 1 17 6)" fill="black"/>
<rect width="2" height="2" transform="matrix(-1 0 0 1 11 12)" fill="black"/>
<rect width="2" height="2" transform="matrix(-1 0 0 1 9 14)" fill="black"/>
<rect x="11" y="16" width="2" height="2" fill="black"/>
<rect width="2" height="2" transform="matrix(-1 0 0 1 19 10)" fill="black"/>
<rect width="2" height="2" transform="matrix(-1 0 0 1 21 8)" fill="black"/>
<rect width="2" height="2" transform="matrix(-1 0 0 1 23 6)" fill="black"/>
<rect width="2" height="2" transform="matrix(-1 0 0 1 17 12)" fill="black"/>
<rect width="2" height="2" transform="matrix(-1 0 0 1 15 14)" fill="black"/>
</svg>
