<svg width="24" height="24" viewBox="0 0 24 24" fill="none" xmlns="http://www.w3.org/2000/svg">
<rect x="2" y="21" width="20" height="2" fill="black"/>
<rect x="2" y="9" width="2" height="14" fill="black"/>
<rect x="20" y="9" width="2" height="14" fill="black"/>
<rect x="4" y="11" width="2" height="2" fill="black"/>
<rect x="6" y="13" width="2" height="2" fill="black"/>
<rect x="8" y="15" width="2" height="2" fill="black"/>
<rect width="2" height="2" transform="matrix(-1 0 0 1 20 11)" fill="black"/>
<rect width="2" height="2" transform="matrix(-1 0 0 1 18 13)" fill="black"/>
<rect width="2" height="2" transform="matrix(-1 0 0 1 16 15)" fill="black"/>
<rect x="10" y="17" width="4" height="2" fill="black"/>
<rect width="2" height="2" transform="matrix(1 0 0 -1 4 9)" fill="black"/>
<rect width="2" height="2" transform="matrix(1 0 0 -1 6 7)" fill="black"/>
<rect width="2" height="2" transform="matrix(1 0 0 -1 8 5)" fill="black"/>
<rect x="20" y="9" width="2" height="2" transform="rotate(180 20 9)" fill="black"/>
<rect x="18" y="7" width="2" height="2" transform="rotate(180 18 7)" fill="black"/>
<rect x="16" y="5" width="2" height="2" transform="rotate(180 16 5)" fill="black"/>
<rect width="4" height="2" transform="matrix(1 0 0 -1 10 3)" fill="black"/>
</svg>
