<svg width="24" height="24" viewBox="0 0 24 24" fill="none" xmlns="http://www.w3.org/2000/svg">
<rect x="19" y="3" width="2" height="2" fill="black"/>
<rect x="15" y="3" width="2" height="2" fill="black"/>
<rect x="11" y="3" width="2" height="2" fill="black"/>
<rect x="7" y="3" width="2" height="2" fill="black"/>
<rect x="3" y="3" width="2" height="2" fill="black"/>
<rect x="3" y="7" width="2" height="2" fill="black"/>
<rect x="3" y="11" width="2" height="2" fill="black"/>
<rect x="3" y="15" width="2" height="2" fill="black"/>
<rect x="3" y="19" width="2" height="2" fill="black"/>
<rect x="7" y="19" width="2" height="2" fill="black"/>
<rect x="11" y="19" width="2" height="2" fill="black"/>
<rect x="19" y="11" width="2" height="2" fill="black"/>
<rect x="19" y="7" width="2" height="2" fill="black"/>
<rect x="15" y="15" width="6" height="2" fill="black"/>
<rect x="15" y="15" width="2" height="6" fill="black"/>
<rect x="17" y="17" width="2" height="2" fill="black"/>
<rect x="19" y="19" width="2" height="2" fill="black"/>
</svg>
