<svg width="24" height="24" viewBox="0 0 24 24" fill="none" xmlns="http://www.w3.org/2000/svg">
<rect x="11" y="12" width="2" height="2" fill="black"/>
<rect x="9" y="10" width="2" height="2" fill="black"/>
<rect x="13" y="10" width="2" height="2" fill="black"/>
<rect x="13" y="14" width="2" height="2" fill="black"/>
<rect x="9" y="14" width="2" height="2" fill="black"/>
<rect x="8" y="6" width="8" height="2" fill="black"/>
<rect x="16" y="8" width="4" height="2" fill="black"/>
<rect x="4" y="8" width="4" height="2" fill="black"/>
<rect width="8" height="2" transform="matrix(1 0 0 -1 8 20)" fill="black"/>
<rect width="4" height="2" transform="matrix(1 0 0 -1 16 18)" fill="black"/>
<rect width="4" height="2" transform="matrix(1 0 0 -1 4 18)" fill="black"/>
<rect x="20" y="10" width="2" height="2" fill="black"/>
<rect x="2" y="10" width="2" height="2" fill="black"/>
<rect y="12" width="2" height="2" fill="black"/>
<rect x="22" y="12" width="2" height="2" fill="black"/>
<rect x="20" y="14" width="2" height="2" fill="black"/>
<rect x="2" y="14" width="2" height="2" fill="black"/>
</svg>
