<svg width="24" height="24" viewBox="0 0 24 24" fill="none" xmlns="http://www.w3.org/2000/svg">
<rect x="2" y="7" width="20" height="2" fill="black"/>
<rect x="2" y="21" width="20" height="2" fill="black"/>
<rect x="2" y="7" width="2" height="16" fill="black"/>
<rect x="20" y="7" width="2" height="16" fill="black"/>
<rect x="12" y="13" width="2" height="6" fill="black"/>
<rect x="10" y="15" width="2" height="4" fill="black"/>
<rect x="14" y="15" width="2" height="4" fill="black"/>
<rect x="8" y="17" width="2" height="2" fill="black"/>
<rect x="16" y="17" width="2" height="2" fill="black"/>
<rect x="6" y="11" width="2" height="2" fill="black"/>
<rect x="7" y="5" width="2" height="2" fill="black"/>
<rect x="9" y="3" width="2" height="2" fill="black"/>
<rect x="11" y="1" width="2" height="2" fill="black"/>
<rect x="13" y="3" width="2" height="2" fill="black"/>
<rect x="15" y="5" width="2" height="2" fill="black"/>
</svg>
