<svg width="24" height="24" viewBox="0 0 24 24" fill="none" xmlns="http://www.w3.org/2000/svg">
<rect x="2" y="2" width="20" height="2" fill="black"/>
<rect x="2" y="2" width="2" height="20" fill="black"/>
<rect x="20" y="2" width="2" height="20" fill="black"/>
<rect x="2" y="20" width="20" height="2" fill="black"/>
<rect x="18" y="4" width="2" height="2" fill="black"/>
<rect x="16" y="4" width="2" height="4" fill="black"/>
<rect x="14" y="4" width="2" height="6" fill="black"/>
<rect x="12" y="4" width="2" height="8" fill="black"/>
<rect x="10" y="4" width="2" height="10" fill="black"/>
<rect x="8" y="4" width="2" height="12" fill="black"/>
<rect x="6" y="4" width="2" height="14" fill="black"/>
<rect x="4" y="4" width="2" height="16" fill="black"/>
<rect x="12" y="16" width="6" height="2" fill="black"/>
<rect x="5" y="7" width="6" height="2" fill="white"/>
<rect x="7" y="11" width="6" height="2" transform="rotate(-90 7 11)" fill="white"/>
</svg>
