<svg width="24" height="24" viewBox="0 0 24 24" fill="none" xmlns="http://www.w3.org/2000/svg">
<rect x="4" y="2" width="20" height="2" fill="black"/>
<rect x="4" y="16" width="20" height="2" fill="black"/>
<rect x="4" y="2" width="2" height="16" fill="black"/>
<rect y="20" width="20" height="2" fill="black"/>
<rect y="6" width="2" height="16" fill="black"/>
<rect x="22" y="2" width="2" height="16" fill="black"/>
<rect x="6" y="6" width="2" height="2" fill="black"/>
<rect x="8" y="8" width="2" height="2" fill="black"/>
<rect x="10" y="10" width="2" height="2" fill="black"/>
<rect width="2" height="2" transform="matrix(-1 0 0 1 22 6)" fill="black"/>
<rect width="2" height="2" transform="matrix(-1 0 0 1 20 8)" fill="black"/>
<rect width="2" height="2" transform="matrix(-1 0 0 1 18 10)" fill="black"/>
<rect x="12" y="12" width="4" height="2" fill="black"/>
</svg>
