<svg width="24" height="24" viewBox="0 0 24 24" fill="none" xmlns="http://www.w3.org/2000/svg">
<rect width="20" height="2" transform="matrix(-1 0 0 1 22 2)" fill="black"/>
<rect width="16" height="2" transform="matrix(-1 0 0 1 22 16)" fill="black"/>
<rect width="2" height="16" transform="matrix(-1 0 0 1 22 2)" fill="black"/>
<rect width="2" height="20" transform="matrix(-1 0 0 1 4 2)" fill="black"/>
<rect width="2" height="2" transform="matrix(-1 0 0 1 6.00024 18)" fill="black"/>
<rect x="11" y="9" width="2" height="2" fill="black"/>
<rect x="9" y="7" width="2" height="2" fill="black"/>
<rect x="13" y="11" width="2" height="2" fill="black"/>
<rect width="2" height="2" transform="matrix(1 0 0 -1 9 13)" fill="black"/>
<rect width="2" height="2" transform="matrix(1 0 0 -1 13 9)" fill="black"/>
</svg>
