<svg width="24" height="24" viewBox="0 0 24 24" fill="none" xmlns="http://www.w3.org/2000/svg">
<rect x="3" y="3" width="8" height="2" fill="black"/>
<rect x="13.0002" y="3" width="8" height="2" fill="black"/>
<rect x="3" y="19" width="18" height="2" fill="black"/>
<rect x="3" y="3" width="2" height="18" fill="black"/>
<rect x="19" y="13" width="2" height="8" fill="black"/>
<rect x="19" y="3" width="2" height="8" fill="black"/>
<rect x="11" y="11" width="2" height="2" fill="black"/>
<rect width="2" height="2" transform="matrix(-1 0 0 1 17 7)" fill="black"/>
<rect width="2" height="2" transform="matrix(-1 0 0 1 19 5)" fill="black"/>
<rect width="2" height="2" transform="matrix(-1 0 0 1 15.0002 9)" fill="black"/>
<rect width="2" height="2" transform="matrix(-1 0 0 1 11 13)" fill="black"/>
</svg>
