<svg width="24" height="24" viewBox="0 0 24 24" fill="none" xmlns="http://www.w3.org/2000/svg">
<g clip-path="url(#clip0_1526_19985)">
<path fill-rule="evenodd" clip-rule="evenodd" d="M11 2H5V4H3.00024V10L5 10V12H11V10V2ZM11.0002 4H13.0002V10H11.0002V4ZM0 16H2V14H14V20V22H2H0V16ZM16.0002 16H14.0002V22H16.0002V16ZM15 2H19V10V12H15V10V2ZM19.0002 4H21.0002V10H19.0002V4ZM24.0002 16H22.0002V20H22V14H18V20V22H24V20H24.0002V16Z" fill="black"/>
</g>
<defs>
<clipPath id="clip0_1526_19985">
<rect width="24" height="24" fill="white"/>
</clipPath>
</defs>
</svg>
