<svg width="24" height="24" viewBox="0 0 24 24" fill="none" xmlns="http://www.w3.org/2000/svg">
<path fill-rule="evenodd" clip-rule="evenodd" d="M12.9999 2H10.9999V7H12.9999V2ZM13 16.9999H11V21.9999H13V16.9999ZM22 10.9999V12.9999H17V10.9999H22ZM7 12.9999V10.9999H2V12.9999H7ZM14.9996 6.99997H16.9996V8.99997H14.9996V6.99997ZM18.9995 4.99997H16.9995V6.99997H18.9995V4.99997ZM8.99963 6.99997H6.99963V8.99997H8.99963V6.99997ZM4.99973 4.99997H6.99973V6.99997H4.99973V4.99997ZM14.9996 17H16.9995V18.9999H18.9995V16.9999H16.9996V15H14.9996V17ZM8.99963 17H6.99973V18.9999H4.99973V16.9999H6.99963V15H8.99963V17Z" fill="currentColor"/>
<rect x="11" y="9" width="2" height="6" fill="currentColor"/>
<rect x="15" y="11" width="2" height="6" transform="rotate(90 15 11)" fill="currentColor"/>
</svg>
