<svg width="24" height="24" viewBox="0 0 24 24" fill="none" xmlns="http://www.w3.org/2000/svg">
<rect width="2" height="2" transform="matrix(1 0 0 -1 5 20)" fill="currentColor"/>
<rect width="2" height="2" transform="matrix(1 0 0 -1 7 22)" fill="currentColor"/>
<rect width="2" height="2" transform="matrix(1 0 0 -1 3 22)" fill="currentColor"/>
<rect width="2" height="2" transform="matrix(1 0 0 -1 3 18)" fill="currentColor"/>
<rect width="2" height="2" transform="matrix(1 0 0 -1 7 18)" fill="currentColor"/>
<path fill-rule="evenodd" clip-rule="evenodd" d="M15 2H3V14H11V22H21V8H19V6H17V4H15V2ZM17 8H15V6H17V8Z" fill="currentColor"/>
</svg>
