<svg width="24" height="24" viewBox="0 0 24 24" fill="none" xmlns="http://www.w3.org/2000/svg">
<path fill-rule="evenodd" clip-rule="evenodd" d="M22 4H2V20H12V14H10V12H12H14V10H16V12H22V4ZM18 8V10H16V8H18ZM18 8V6H20V8H18ZM8 10H10V12H8V10ZM6 8H8V10H6V8ZM6 8H4V6H6V8Z" fill="currentColor"/>
<rect x="14" y="18" width="10" height="2" fill="currentColor"/>
<rect x="20" y="16" width="2" height="2" fill="currentColor"/>
<rect x="18" y="14" width="2" height="2" fill="currentColor"/>
<rect x="20" y="20" width="2" height="2" fill="currentColor"/>
<rect x="18" y="22" width="2" height="2" fill="currentColor"/>
</svg>
