<svg width="24" height="24" viewBox="0 0 24 24" fill="none" xmlns="http://www.w3.org/2000/svg">
<path fill-rule="evenodd" clip-rule="evenodd" d="M18.0001 2H16.0001V4.00002H14.0002V9.99995V10V14H16.0002V11.9999H18.0001V10H20.0001V8.00002H22V6.00002H20.0001H20.0001V4.00002H18.0001V2ZM4 4.00002H10V6.00002H4V20H18.0001V14H20.0001V22H20V22H2V22V20V6.00002V4.00002H4ZM8.00012 12H6.00018V16V18V18H12.0002V16L14 16V12V6.00002H12V8.00002H10.0001V9.99994H8.00012V12ZM10.0001 15.9999V16H8.00018V15.9999H10.0001Z" fill="black"/>
</svg>
