<svg xmlns="http://www.w3.org/2000/svg" width="24" height="24" fill="none" viewBox="0 0 24 24">
  <path fill="currentColor" fill-rule="evenodd" d="M5 4H4v1h1V4Zm3 0H7v1h1V4Zm3 0h-1v1h1V4Zm2 0h1v1h-1V4Zm3 0h1v1h-1V4Zm3 0h1v1h-1V4Zm1 15h-1v-1h-1v-1h-1v-2h-2v-1h4v-1h-6v6h1v-3h1v1h2v1h1v1h1v1h1v-1Zm-10 0h1v1h-1v-1Zm-3 0h1v1H7v-1ZM4 7h1v1H4V7Zm16 0h-1v1h1V7ZM4 10h1v1H4v-1Zm16 0h-1v1h1v-1ZM4 13h1v1H4v-1Zm1 3H4v1h1v-1Zm-1 3h1v1H4v-1Z" clip-rule="evenodd"/>
  <path fill="currentColor" d="M14 15h1v3h-1zm1-1h3v1h-3z"/>
</svg>
