<svg xmlns="http://www.w3.org/2000/svg" width="24" height="25" fill="none" viewBox="0 0 24 25">
  <path fill="currentColor" fill-rule="evenodd" d="M15 18.854v-1h1v-1h1v1h-1v1h-1Zm2-2v-1h1v-1h1v1h-1v1h-1Zm-11-2v1h1v1H6v-1H5v-1h1Zm2-6H7v1H6v1H5v1H4v-1h1v-1h1v-1h1v-1h1v-1h1v1H8v1Zm8 0h1v-1h-1v-1h-1v1h1v1Zm2 1h-1v-1h1v1Zm1 1v-1h-1v1h1Zm0 0v1h1v-1h-1Zm-11 6v1h1v1H8v-1H7v-1h1Zm11-2v-1h1v-2h1v2h-1v1h-1Zm-14-1v1H4v-1H3v-2h1v2h1Zm12-2h1v2h-1v-2Zm-11 0h1v2H6v-2Zm9 0h1v2h-1v-2Zm-7 0h1v2H8v-2Zm5 0h1v2h-1v-2Zm-3 0h1v2h-1v-2Z" clip-rule="evenodd"/>
</svg>
