<svg xmlns="http://www.w3.org/2000/svg" width="24" height="24" fill="none" viewBox="0 0 24 24">
  <path fill="#000" fill-rule="evenodd" d="M7 2h4v1H7V2ZM5 4V3h2v1H5ZM4 5V4h1v1H4ZM3 7V5h1v2H3Zm0 10H2V7h1v10Zm1 2H3v-2h1v2Zm1 1H4v-1h1v1Zm2 1H5v-1h2v1Zm10 0v1H7v-1h10Zm2-1v1h-2v-1h2Zm1-1v1h-1v-1h1Zm1-2v2h-1v-2h1Zm0-10h1v10h-1V7Zm-1-2h1v2h-1V5Zm-1-1h1v1h-1V4Zm0 0h-2V3h2v1Zm-6-2h-1v8h-2v5h5v-5h-2V2ZM8 6h3v1H8V6ZM7 8V7h1v1H7Zm0 8H6V8h1v8Zm1 1H7v-1h1v1Zm8 0v1H8v-1h8Zm1-1v1h-1v-1h1Zm0-8v8h1V8h-1Zm0 0h-1V7h1v1Z" clip-rule="evenodd"/>
</svg>
