<svg xmlns="http://www.w3.org/2000/svg" width="24" height="24" fill="none" viewBox="0 0 24 24">
  <path fill="currentColor" d="M15 18h1v1h-1zm1 1h1v1h-1zm1 1h1v1h-1zm1-1h1v1h-1zm1-1h1v1h-1zm1-1h1v1h-1zm1-1h1v1h-1zm1-1h1v1h-1z"/>
  <path fill="currentColor" fill-rule="evenodd" d="M2 4h20v10h-8v6H2V4Zm2 2h1v1H4V6Zm2 2H5V7h1v1Zm1 1H6V8h1v1Zm1 1H7V9h1v1Zm1 1H8v-1h1v1Zm1 1H9v-1h1v1Zm1 1h-1v-1h1v1Zm2 0v1h-2v-1h2Zm1-1v1h-1v-1h1Zm1-1v1h-1v-1h1Zm1-1v1h-1v-1h1Zm1-1v1h-1V9h1Zm1-1v1h-1V8h1Zm1-1v1h-1V7h1Zm0 0V6h1v1h-1Z" clip-rule="evenodd"/>
</svg>
