<svg xmlns="http://www.w3.org/2000/svg" width="24" height="24" fill="none" viewBox="0 0 24 24">
  <path fill="#000" fill-rule="evenodd" d="M3 3h1v1H3V3Zm14 0h1v1h-1V3Zm0 2h1v1h-1V5ZM6 17H5v1h1v-1Zm7-14h1v1h-1V3Zm3 0h-1v1h1V3Zm-5 0h1v1h-1V3Zm-1 0H9v1h1V3ZM7 3h1v1H7V3ZM6 3H5v1h1V3ZM4 5H3v1h1V5ZM3 7h1v1H3V7Zm1 2H3v1h1V9Zm-1 2h1v1H3v-1Zm1 2H3v1h1v-1Zm-1 2h1v1H3v-1Zm1 2H3v1h1v-1Zm16-3v1h-4v1h-1v4h-1v-6h6Zm-3 3h-1v-1h1v1Zm1 1h-1v-1h1v1Zm1 1h-1v-1h1v1Zm1 1h-1v-1h1v1Zm0 0h1v1h-1v-1ZM7 8V7h14v5h-9v9H7V8Z" clip-rule="evenodd"/>
  <path fill="#000" d="M16 15h3v1h-3zm-1 1h1v3h-1z"/>
</svg>
