<svg xmlns="http://www.w3.org/2000/svg" width="24" height="24" fill="none" viewBox="0 0 24 24">
  <path fill="currentColor" fill-rule="evenodd" d="M13 1h-2v1h2V1Zm-2 2h2v1h-2V3Zm2 2h-2v1h2V5Zm0 2h-2v1h2V7Zm-2 9h2v1h-2v-1Zm2 2h-2v1h2v-1Zm-2 2h2v1h-2v-1Zm2 2h-2v1h2v-1Zm2-7h1v1h-1v-1Zm2 2h-1v-1h1v1Zm1 1h-1v-1h1v1Zm1 1h-1v-1h1v1Zm0 0h1v1h-1v-1ZM15 8v1h1V8h1V7h1V6h1V5h1V4h-1v1h-1v1h-1v1h-1v1h-1ZM4 4h1v1H4V4Zm2 2H5V5h1v1Zm1 1H6V6h1v1Zm1 1H7V7h1v1Zm0 0h1v1H8V8ZM4 19v1h1v-1h1v-1h1v-1h1v-1h1v-1H8v1H7v1H6v1H5v1H4Zm12-8h1v2h-1v-2ZM2 11H1v2h1v-2Zm16 0h1v2h-1v-2ZM4 11H3v2h1v-2Zm16 0h1v2h-1v-2ZM6 11H5v2h1v-2Zm16 0h1v2h-1v-2ZM8 11H7v2h1v-2Z" clip-rule="evenodd"/>
</svg>
