<svg xmlns="http://www.w3.org/2000/svg" width="24" height="25" fill="none" viewBox="0 0 24 25">
  <path fill="currentColor" fill-rule="evenodd" d="M11 4.854h2v1h1v-1h-1v-1h-2v1Zm4 2h-1v-1h1v1Zm0 0h1v1h-1v-1Zm-7 2v-1h1v-1h1v-1h1v-1h-1v1H9v1H8v1H7v1H6v1h1v-1h1Zm0 8v1H7v-1H6v-1h1v1h1Zm1 2H8v-1h1v1Zm1 1v-1H9v1h1Zm0 0v1h1v-1h-1Zm4-1h1v1h-1v-1Zm1 0h1v-1h-1v1Zm2-10h-1v-1h1v1Zm0 0h1v1h-1v-1Zm-1 8h1v1h-1v-1Zm1 0h1v-1h-1v1Zm-4 3h1v1h-1v-1Zm0 1v1h-2v-1h2Zm-2-13v-1h2v1h-2Zm0 11v-1h2v1h-2Zm0-9v-1h2v1h-2Zm0 7v-1h2v1h-2Zm0-5v-1h2v1h-2Zm0 3v-1h2v1h-2Z" clip-rule="evenodd"/>
</svg>
