<svg width="24" height="24" viewBox="0 0 24 24" fill="none" xmlns="http://www.w3.org/2000/svg">
<rect x="4" y="5" width="3" height="1" fill="currentColor"/>
<rect x="4" y="10" width="3" height="1" fill="currentColor"/>
<rect x="4" y="15" width="3" height="1" fill="currentColor"/>
<rect x="4" y="7" width="3" height="1" fill="currentColor"/>
<rect x="4" y="12" width="3" height="1" fill="currentColor"/>
<rect x="4" y="17" width="3" height="1" fill="currentColor"/>
<rect x="4" y="6" width="1" height="1" fill="currentColor"/>
<rect x="4" y="11" width="1" height="1" fill="currentColor"/>
<rect x="4" y="16" width="1" height="1" fill="currentColor"/>
<rect x="6" y="6" width="1" height="1" fill="currentColor"/>
<rect x="6" y="11" width="1" height="1" fill="currentColor"/>
<rect x="6" y="16" width="1" height="1" fill="currentColor"/>
<rect x="8" y="6" width="12" height="1" fill="currentColor"/>
<rect x="8" y="11" width="12" height="1" fill="currentColor"/>
<rect x="8" y="16" width="12" height="1" fill="currentColor"/>
</svg>
