<svg width="24" height="24" viewBox="0 0 24 24" fill="none" xmlns="http://www.w3.org/2000/svg">
<rect x="11" y="7" width="2" height="1" fill="black"/>
<rect x="11" y="5" width="2" height="1" fill="black"/>
<rect x="11" y="3" width="2" height="1" fill="black"/>
<rect x="11" y="1" width="2" height="1" fill="black"/>
<rect x="11" y="16" width="2" height="1" fill="black"/>
<rect x="11" y="18" width="2" height="1" fill="black"/>
<rect x="11" y="20" width="2" height="1" fill="black"/>
<rect x="11" y="22" width="2" height="1" fill="black"/>
<rect x="15" y="15" width="1" height="1" fill="black"/>
<rect x="15" y="9" width="1" height="1" transform="rotate(-90 15 9)" fill="black"/>
<rect x="4" y="4" width="1" height="1" fill="black"/>
<rect x="4" y="20" width="1" height="1" transform="rotate(-90 4 20)" fill="black"/>
<rect x="16" y="16" width="1" height="1" fill="black"/>
<rect x="16" y="8" width="1" height="1" transform="rotate(-90 16 8)" fill="black"/>
<rect x="5" y="5" width="1" height="1" fill="black"/>
<rect x="5" y="19" width="1" height="1" transform="rotate(-90 5 19)" fill="black"/>
<rect x="17" y="17" width="1" height="1" fill="black"/>
<rect x="17" y="7" width="1" height="1" transform="rotate(-90 17 7)" fill="black"/>
<rect x="6" y="6" width="1" height="1" fill="black"/>
<rect x="6" y="18" width="1" height="1" transform="rotate(-90 6 18)" fill="black"/>
<rect x="18" y="18" width="1" height="1" fill="black"/>
<rect x="18" y="6" width="1" height="1" transform="rotate(-90 18 6)" fill="black"/>
<rect x="7" y="7" width="1" height="1" fill="black"/>
<rect x="7" y="17" width="1" height="1" transform="rotate(-90 7 17)" fill="black"/>
<rect x="19" y="19" width="1" height="1" fill="black"/>
<rect x="19" y="5" width="1" height="1" transform="rotate(-90 19 5)" fill="black"/>
<rect x="8" y="8" width="1" height="1" fill="black"/>
<rect x="8" y="16" width="1" height="1" transform="rotate(-90 8 16)" fill="black"/>
<rect x="16" y="11" width="1" height="2" fill="black"/>
<rect x="1" y="11" width="1" height="2" fill="black"/>
<rect x="18" y="11" width="1" height="2" fill="black"/>
<rect x="3" y="11" width="1" height="2" fill="black"/>
<rect x="20" y="11" width="1" height="2" fill="black"/>
<rect x="5" y="11" width="1" height="2" fill="black"/>
<rect x="22" y="11" width="1" height="2" fill="black"/>
<rect x="7" y="11" width="1" height="2" fill="black"/>
</svg>
