<svg width="24" height="24" viewBox="0 0 24 24" fill="none" xmlns="http://www.w3.org/2000/svg">
<rect x="2" y="6" width="20" height="1" fill="black"/>
<rect x="2" y="19" width="20" height="1" fill="black"/>
<rect x="2" y="7" width="1" height="12" fill="black"/>
<rect x="21" y="7" width="1" height="12" fill="black"/>
<rect x="10" y="5" width="1" height="1" fill="black"/>
<rect width="1" height="1" transform="matrix(-1 0 0 1 14 5)" fill="black"/>
<rect x="8" y="3" width="1" height="1" fill="black"/>
<rect width="1" height="1" transform="matrix(-1 0 0 1 16 3)" fill="black"/>
<rect x="9" y="4" width="1" height="1" fill="black"/>
<rect width="1" height="1" transform="matrix(-1 0 0 1 15 4)" fill="black"/>
<rect x="7" y="2" width="1" height="1" fill="black"/>
<rect width="1" height="1" transform="matrix(-1 0 0 1 17 2)" fill="black"/>
</svg>
