<svg width="24" height="24" viewBox="0 0 24 24" fill="none" xmlns="http://www.w3.org/2000/svg">
<rect x="20" y="5" width="16" height="1" transform="rotate(-180 20 5)" fill="currentColor"/>
<rect x="8" y="10" width="1" height="1" transform="rotate(90 8 10)" fill="currentColor"/>
<rect x="7" y="11" width="1" height="1" transform="rotate(90 7 11)" fill="currentColor"/>
<rect x="15" y="9" width="1" height="1" transform="rotate(-180 15 9)" fill="currentColor"/>
<rect x="16" y="10" width="1" height="1" transform="rotate(-180 16 10)" fill="currentColor"/>
<rect x="17" y="11" width="1" height="1" transform="rotate(-180 17 11)" fill="currentColor"/>
<rect x="18" y="12" width="1" height="1" transform="rotate(-180 18 12)" fill="currentColor"/>
<rect x="14" y="8" width="1" height="1" transform="rotate(-180 14 8)" fill="currentColor"/>
<rect width="1" height="1" transform="matrix(1 8.74228e-08 8.74228e-08 -1 12 7)" fill="currentColor"/>
<rect width="1" height="1" transform="matrix(1 8.74228e-08 8.74228e-08 -1 10 8)" fill="currentColor"/>
<rect width="1" height="1" transform="matrix(1 8.74228e-08 8.74228e-08 -1 11 7)" fill="currentColor"/>
<rect width="1" height="1" transform="matrix(1 8.74228e-08 8.74228e-08 -1 9 9)" fill="currentColor"/>
<rect width="1" height="1" transform="matrix(1 8.74228e-08 8.74228e-08 -1 8 10)" fill="currentColor"/>
<rect x="13" y="16" width="2" height="1" transform="rotate(-180 13 16)" fill="currentColor"/>
<rect x="13" y="10" width="2" height="1" transform="rotate(-180 13 10)" fill="currentColor"/>
<rect x="13" y="18" width="2" height="1" transform="rotate(-180 13 18)" fill="currentColor"/>
<rect x="13" y="12" width="2" height="1" transform="rotate(-180 13 12)" fill="currentColor"/>
<rect x="13" y="20" width="2" height="1" transform="rotate(-180 13 20)" fill="currentColor"/>
<rect x="13" y="14" width="2" height="1" transform="rotate(-180 13 14)" fill="currentColor"/>
</svg>
