<svg width="24" height="24" viewBox="0 0 24 24" fill="none" xmlns="http://www.w3.org/2000/svg">
<rect x="3" y="15" width="1" height="6" fill="black"/>
<rect x="20" y="15" width="1" height="6" fill="black"/>
<rect x="4" y="20" width="16" height="1" fill="black"/>
<rect x="11" y="17" width="2" height="1" fill="black"/>
<rect x="11" y="15" width="2" height="1" fill="black"/>
<rect x="11" y="13" width="2" height="1" fill="black"/>
<rect x="11" y="11" width="2" height="1" fill="black"/>
<rect x="11" y="9" width="2" height="1" fill="black"/>
<rect x="11" y="7" width="2" height="1" fill="black"/>
<rect x="11" y="5" width="2" height="1" fill="black"/>
<rect x="11" y="3" width="2" height="1" fill="black"/>
<rect x="10" y="16" width="1" height="1" fill="black"/>
<rect width="1" height="1" transform="matrix(-1 0 0 1 14 16)" fill="black"/>
<rect x="9" y="15" width="1" height="1" fill="black"/>
<rect width="1" height="1" transform="matrix(-1 0 0 1 15 15)" fill="black"/>
<rect x="8" y="14" width="1" height="1" fill="black"/>
<rect width="1" height="1" transform="matrix(-1 0 0 1 16 14)" fill="black"/>
<rect x="7" y="13" width="1" height="1" fill="black"/>
<rect width="1" height="1" transform="matrix(-1 0 0 1 17 13)" fill="black"/>
<rect x="6" y="12" width="1" height="1" fill="black"/>
<rect width="1" height="1" transform="matrix(-1 0 0 1 18 12)" fill="black"/>
<rect x="5" y="11" width="1" height="1" fill="black"/>
<rect width="1" height="1" transform="matrix(-1 0 0 1 19 11)" fill="black"/>
</svg>
