<svg width="24" height="24" viewBox="0 0 24 24" fill="none" xmlns="http://www.w3.org/2000/svg">
<rect x="3" y="4" width="16" height="1" fill="currentColor"/>
<rect x="19" y="5" width="1" height="1" fill="currentColor"/>
<rect x="20" y="6" width="1" height="6" fill="currentColor"/>
<rect x="19" y="12" width="1" height="1" fill="currentColor"/>
<rect x="10" y="13" width="9" height="1" fill="currentColor"/>
<rect x="11" y="12" width="1" height="1" fill="currentColor"/>
<rect x="12" y="11" width="1" height="1" fill="currentColor"/>
<rect x="13" y="10" width="1" height="1" fill="currentColor"/>
<rect x="14" y="9" width="1" height="1" fill="currentColor"/>
<rect x="11" y="14" width="1" height="1" fill="currentColor"/>
<rect x="12" y="15" width="1" height="1" fill="currentColor"/>
<rect x="13" y="16" width="1" height="1" fill="currentColor"/>
<rect x="14" y="17" width="1" height="1" fill="currentColor"/>
<rect x="3" y="8" width="9" height="1" fill="currentColor"/>
<rect x="3" y="11" width="6" height="1" fill="currentColor"/>
<rect width="7" height="1" transform="matrix(1 0 0 -1 3 18)" fill="currentColor"/>
<rect x="3" y="14" width="5" height="1" fill="currentColor"/>
</svg>
