<svg width="24" height="24" viewBox="0 0 24 24" fill="none" xmlns="http://www.w3.org/2000/svg">
<rect x="2" y="10" width="1" height="12" fill="black"/>
<rect x="3" y="21" width="18" height="1" fill="black"/>
<rect x="21" y="10" width="1" height="12" fill="black"/>
<rect x="3" y="9" width="1" height="1" fill="black"/>
<rect width="1" height="1" transform="matrix(1 0 0 -1 3 13)" fill="black"/>
<rect x="4" y="8" width="1" height="1" fill="black"/>
<rect width="1" height="1" transform="matrix(1 0 0 -1 4 14)" fill="black"/>
<rect x="5" y="7" width="1" height="1" fill="black"/>
<rect width="1" height="1" transform="matrix(1 0 0 -1 5 15)" fill="black"/>
<rect x="6" y="6" width="1" height="1" fill="black"/>
<rect width="1" height="1" transform="matrix(1 0 0 -1 6 16)" fill="black"/>
<rect x="7" y="5" width="1" height="1" fill="black"/>
<rect width="1" height="1" transform="matrix(1 0 0 -1 7 17)" fill="black"/>
<rect x="8" y="4" width="1" height="1" fill="black"/>
<rect width="1" height="1" transform="matrix(1 0 0 -1 8 18)" fill="black"/>
<rect x="9" y="3" width="1" height="1" fill="black"/>
<rect width="1" height="1" transform="matrix(1 0 0 -1 9 19)" fill="black"/>
<rect x="10" y="2" width="4" height="1" fill="black"/>
<rect width="4" height="1" transform="matrix(1 0 0 -1 10 20)" fill="black"/>
<rect x="14" y="3" width="1" height="1" fill="black"/>
<rect width="1" height="1" transform="matrix(1 0 0 -1 14 19)" fill="black"/>
<rect x="15" y="4" width="1" height="1" fill="black"/>
<rect width="1" height="1" transform="matrix(1 0 0 -1 15 18)" fill="black"/>
<rect x="16" y="5" width="1" height="1" fill="black"/>
<rect width="1" height="1" transform="matrix(1 0 0 -1 16 17)" fill="black"/>
<rect x="17" y="6" width="1" height="1" fill="black"/>
<rect width="1" height="1" transform="matrix(1 0 0 -1 17 16)" fill="black"/>
<rect x="18" y="7" width="1" height="1" fill="black"/>
<rect width="1" height="1" transform="matrix(1 0 0 -1 18 15)" fill="black"/>
<rect x="19" y="8" width="1" height="1" fill="black"/>
<rect width="1" height="1" transform="matrix(1 0 0 -1 19 14)" fill="black"/>
<rect x="20" y="9" width="1" height="1" fill="black"/>
<rect width="1" height="1" transform="matrix(1 0 0 -1 20 13)" fill="black"/>
<rect x="6" y="10" width="12" height="1" fill="black"/>
<rect x="6" y="11" width="1" height="4" fill="black"/>
<rect x="17" y="11" width="1" height="4" fill="black"/>
<rect x="9" y="12" width="6" height="1" fill="black"/>
<rect x="9" y="14" width="3" height="1" fill="black"/>
</svg>
