<svg width="24" height="24" viewBox="0 0 24 24" fill="none" xmlns="http://www.w3.org/2000/svg">
<rect x="10" y="2" width="1" height="4" fill="black"/>
<rect x="13" y="2" width="1" height="4" fill="black"/>
<rect x="11" y="2" width="2" height="1" fill="black"/>
<rect x="11" y="5" width="2" height="1" fill="black"/>
<rect x="8" y="7" width="8" height="1" fill="black"/>
<rect x="9" y="8" width="1" height="14" fill="black"/>
<rect x="14" y="8" width="1" height="14" fill="black"/>
<rect x="10" y="15" width="4" height="1" fill="black"/>
<rect width="1" height="1" transform="matrix(1 0 0 -1 16 7)" fill="black"/>
<rect width="1" height="1" transform="matrix(1 0 0 -1 7 7)" fill="black"/>
<rect width="1" height="1" transform="matrix(1 0 0 -1 6 6)" fill="black"/>
<rect width="1" height="1" transform="matrix(1 0 0 -1 5 5)" fill="black"/>
<rect width="1" height="1" transform="matrix(1 0 0 -1 4 4)" fill="black"/>
<rect width="1" height="1" transform="matrix(1 0 0 -1 3 3)" fill="black"/>
<rect width="1" height="1" transform="matrix(1 0 0 -1 17 6)" fill="black"/>
<rect width="1" height="1" transform="matrix(1 0 0 -1 18 5)" fill="black"/>
<rect width="1" height="1" transform="matrix(1 0 0 -1 19 4)" fill="black"/>
<rect width="1" height="1" transform="matrix(1 0 0 -1 20 3)" fill="black"/>
</svg>
