<svg width="24" height="24" viewBox="0 0 24 24" fill="none" xmlns="http://www.w3.org/2000/svg">
<rect x="1" y="12" width="1" height="2" fill="currentColor"/>
<rect width="1" height="2" transform="matrix(-1 0 0 1 23 12)" fill="currentColor"/>
<rect x="2" y="11" width="1" height="1" fill="currentColor"/>
<rect width="1" height="1" transform="matrix(1 0 0 -1 2 15)" fill="currentColor"/>
<rect width="1" height="1" transform="matrix(-1 0 0 1 22 11)" fill="currentColor"/>
<rect x="22" y="15" width="1" height="1" transform="rotate(-180 22 15)" fill="currentColor"/>
<rect x="3" y="10" width="1" height="1" fill="currentColor"/>
<rect width="1" height="1" transform="matrix(1 0 0 -1 3 16)" fill="currentColor"/>
<rect width="1" height="1" transform="matrix(-1 0 0 1 21 10)" fill="currentColor"/>
<rect x="21" y="16" width="1" height="1" transform="rotate(-180 21 16)" fill="currentColor"/>
<rect x="4" y="9" width="1" height="1" fill="currentColor"/>
<rect width="1" height="1" transform="matrix(1 0 0 -1 4 17)" fill="currentColor"/>
<rect width="1" height="1" transform="matrix(-1 0 0 1 20 9)" fill="currentColor"/>
<rect x="20" y="17" width="1" height="1" transform="rotate(-180 20 17)" fill="currentColor"/>
<rect x="5" y="8" width="1" height="1" fill="currentColor"/>
<rect width="1" height="1" transform="matrix(1 0 0 -1 5 18)" fill="currentColor"/>
<rect width="1" height="1" transform="matrix(-1 0 0 1 19 8)" fill="currentColor"/>
<rect x="19" y="18" width="1" height="1" transform="rotate(-180 19 18)" fill="currentColor"/>
<rect x="6" y="7" width="2" height="1" fill="currentColor"/>
<rect width="2" height="1" transform="matrix(1 0 0 -1 6 19)" fill="currentColor"/>
<rect width="2" height="1" transform="matrix(-1 0 0 1 18 7)" fill="currentColor"/>
<rect x="18" y="19" width="2" height="1" transform="rotate(-180 18 19)" fill="currentColor"/>
<rect x="8" y="6" width="8" height="1" fill="currentColor"/>
<rect width="8" height="1" transform="matrix(1 0 0 -1 8 20)" fill="currentColor"/>
<rect x="10" y="10" width="4" height="1" fill="currentColor"/>
<rect x="9" y="11" width="1" height="4" fill="currentColor"/>
<rect x="10" y="15" width="4" height="1" fill="currentColor"/>
<rect x="14" y="11" width="1" height="4" fill="currentColor"/>
<rect x="20" y="8" width="1" height="1" fill="currentColor"/>
<rect width="1" height="1" transform="matrix(-1 0 0 1 4 8)" fill="currentColor"/>
<rect x="21" y="7" width="1" height="1" fill="currentColor"/>
<rect width="1" height="1" transform="matrix(-1 0 0 1 3 7)" fill="currentColor"/>
<rect x="19" y="5" width="1" height="1" fill="currentColor"/>
<rect width="1" height="1" transform="matrix(-1 0 0 1 5 5)" fill="currentColor"/>
<rect x="18" y="6" width="1" height="1" fill="currentColor"/>
<rect width="1" height="1" transform="matrix(-1 0 0 1 6 6)" fill="currentColor"/>
<rect x="14" y="4" width="1" height="1" fill="currentColor"/>
<rect width="1" height="1" transform="matrix(-1 0 0 1 10 4)" fill="currentColor"/>
<rect x="13" y="5" width="1" height="1" fill="currentColor"/>
<rect width="1" height="1" transform="matrix(-1 0 0 1 11 5)" fill="currentColor"/>
</svg>
