<svg width="24" height="24" viewBox="0 0 24 24" fill="none" xmlns="http://www.w3.org/2000/svg">
<rect x="5" y="4" width="16" height="1" transform="rotate(90 5 4)" fill="black"/>
<rect x="10" y="16" width="1" height="1" fill="black"/>
<rect x="11" y="17" width="1" height="1" fill="black"/>
<rect x="9" y="9" width="1" height="1" transform="rotate(90 9 9)" fill="black"/>
<rect x="10" y="8" width="1" height="1" transform="rotate(90 10 8)" fill="black"/>
<rect x="11" y="7" width="1" height="1" transform="rotate(90 11 7)" fill="black"/>
<rect x="12" y="6" width="1" height="1" transform="rotate(90 12 6)" fill="black"/>
<rect x="8" y="10" width="1" height="1" transform="rotate(90 8 10)" fill="black"/>
<rect width="1" height="1" transform="matrix(4.37114e-08 -1 -1 -4.37114e-08 7 12)" fill="black"/>
<rect width="1" height="1" transform="matrix(4.37114e-08 -1 -1 -4.37114e-08 8 14)" fill="black"/>
<rect width="1" height="1" transform="matrix(4.37114e-08 -1 -1 -4.37114e-08 7 13)" fill="black"/>
<rect width="1" height="1" transform="matrix(4.37114e-08 -1 -1 -4.37114e-08 9 15)" fill="black"/>
<rect width="1" height="1" transform="matrix(4.37114e-08 -1 -1 -4.37114e-08 10 16)" fill="black"/>
<rect x="16" y="11" width="2" height="1" transform="rotate(90 16 11)" fill="black"/>
<rect x="10" y="11" width="2" height="1" transform="rotate(90 10 11)" fill="black"/>
<rect x="18" y="11" width="2" height="1" transform="rotate(90 18 11)" fill="black"/>
<rect x="12" y="11" width="2" height="1" transform="rotate(90 12 11)" fill="black"/>
<rect x="20" y="11" width="2" height="1" transform="rotate(90 20 11)" fill="black"/>
<rect x="14" y="11" width="2" height="1" transform="rotate(90 14 11)" fill="black"/>
</svg>
