<svg width="24" height="24" viewBox="0 0 24 24" fill="none" xmlns="http://www.w3.org/2000/svg">
<rect x="6" y="5" width="12" height="1" fill="currentColor"/>
<rect x="6" y="14" width="12" height="1" fill="currentColor"/>
<rect x="18" y="6" width="1" height="1" fill="currentColor"/>
<rect x="19" y="7" width="1" height="1" fill="currentColor"/>
<rect x="20" y="8" width="1" height="1" fill="currentColor"/>
<rect x="20" y="11" width="1" height="1" fill="currentColor"/>
<rect x="19" y="12" width="1" height="1" fill="currentColor"/>
<rect x="18" y="13" width="1" height="1" fill="currentColor"/>
<rect x="21" y="9" width="1" height="2" fill="currentColor"/>
<rect width="1" height="8" transform="matrix(1 0 0 -1 6 14)" fill="currentColor"/>
<rect x="4" y="7" width="1" height="9" fill="currentColor"/>
<rect x="2" y="9" width="1" height="9" fill="currentColor"/>
<rect x="4" y="16" width="12" height="1" fill="currentColor"/>
<rect x="2" y="18" width="12" height="1" fill="currentColor"/>
</svg>
