<svg width="24" height="24" viewBox="0 0 24 24" fill="none" xmlns="http://www.w3.org/2000/svg">
<rect x="2" y="3" width="20" height="1" fill="black"/>
<rect x="2" y="20" width="20" height="1" fill="black"/>
<rect x="2" y="4" width="1" height="16" fill="black"/>
<rect x="21" y="4" width="1" height="16" fill="black"/>
<rect x="12" y="6" width="7" height="1" fill="black"/>
<rect x="12" y="13" width="7" height="1" fill="black"/>
<rect x="12" y="8" width="7" height="1" fill="black"/>
<rect x="12" y="15" width="7" height="1" fill="black"/>
<rect x="12" y="10" width="4" height="1" fill="black"/>
<rect x="12" y="17" width="4" height="1" fill="black"/>
<rect x="6" y="6" width="4" height="1" fill="black"/>
<rect x="6" y="13" width="4" height="1" fill="black"/>
<rect x="6" y="10" width="4" height="1" fill="black"/>
<rect x="6" y="17" width="4" height="1" fill="black"/>
<rect x="5" y="11" width="5" height="1" transform="rotate(-90 5 11)" fill="black"/>
<rect x="5" y="18" width="5" height="1" transform="rotate(-90 5 18)" fill="black"/>
<rect x="9" y="11" width="5" height="1" transform="rotate(-90 9 11)" fill="black"/>
<rect x="9" y="18" width="5" height="1" transform="rotate(-90 9 18)" fill="black"/>
</svg>
