<svg width="24" height="24" viewBox="0 0 24 24" fill="none" xmlns="http://www.w3.org/2000/svg">
<rect width="1" height="1" transform="matrix(-1 0 0 1 16 16)" fill="black"/>
<rect width="1" height="1" transform="matrix(-1 0 0 1 15 17)" fill="black"/>
<rect width="1" height="1" transform="matrix(4.37114e-08 1 1 -4.37114e-08 17 9)" fill="black"/>
<rect width="1" height="1" transform="matrix(4.37114e-08 1 1 -4.37114e-08 16 8)" fill="black"/>
<rect width="1" height="1" transform="matrix(4.37114e-08 1 1 -4.37114e-08 15 7)" fill="black"/>
<rect width="1" height="1" transform="matrix(4.37114e-08 1 1 -4.37114e-08 14 6)" fill="black"/>
<rect width="1" height="1" transform="matrix(4.37114e-08 1 1 -4.37114e-08 18 10)" fill="black"/>
<rect x="19" y="12" width="1" height="1" transform="rotate(-90 19 12)" fill="black"/>
<rect x="18" y="14" width="1" height="1" transform="rotate(-90 18 14)" fill="black"/>
<rect x="19" y="13" width="1" height="1" transform="rotate(-90 19 13)" fill="black"/>
<rect x="17" y="15" width="1" height="1" transform="rotate(-90 17 15)" fill="black"/>
<rect x="16" y="16" width="1" height="1" transform="rotate(-90 16 16)" fill="black"/>
<rect width="2" height="1" transform="matrix(4.37114e-08 1 1 -4.37114e-08 10 11)" fill="black"/>
<rect width="2" height="1" transform="matrix(4.37114e-08 1 1 -4.37114e-08 16 11)" fill="black"/>
<rect width="2" height="1" transform="matrix(4.37114e-08 1 1 -4.37114e-08 8 11)" fill="black"/>
<rect width="2" height="1" transform="matrix(4.37114e-08 1 1 -4.37114e-08 14 11)" fill="black"/>
<rect width="2" height="1" transform="matrix(4.37114e-08 1 1 -4.37114e-08 6 11)" fill="black"/>
<rect width="2" height="1" transform="matrix(4.37114e-08 1 1 -4.37114e-08 4 11)" fill="black"/>
<rect width="2" height="1" transform="matrix(4.37114e-08 1 1 -4.37114e-08 12 11)" fill="black"/>
</svg>
