<svg width="24" height="24" viewBox="0 0 24 24" fill="none" xmlns="http://www.w3.org/2000/svg">
<rect x="12" y="2" width="1" height="20" fill="black"/>
<rect x="11" y="21" width="1" height="1" fill="black"/>
<rect x="11" y="2" width="1" height="1" fill="black"/>
<rect x="10" y="20" width="1" height="1" fill="black"/>
<rect width="1" height="1" transform="matrix(1 0 0 -1 10 4)" fill="black"/>
<rect x="9" y="19" width="1" height="1" fill="black"/>
<rect width="1" height="1" transform="matrix(1 0 0 -1 9 5)" fill="black"/>
<rect x="8" y="18" width="1" height="1" fill="black"/>
<rect width="1" height="1" transform="matrix(1 0 0 -1 8 6)" fill="black"/>
<rect x="7" y="17" width="1" height="1" fill="black"/>
<rect width="1" height="1" transform="matrix(1 0 0 -1 7 7)" fill="black"/>
<rect x="6" y="16" width="1" height="1" fill="black"/>
<rect width="1" height="1" transform="matrix(1 0 0 -1 6 8)" fill="black"/>
<rect x="3" y="15" width="3" height="1" fill="black"/>
<rect x="3" y="8" width="3" height="1" fill="black"/>
<rect x="3" y="9" width="1" height="6" fill="black"/>
<rect x="18" y="11" width="1" height="1" fill="black"/>
<rect width="1" height="1" transform="matrix(-1 0 0 1 18 11)" fill="black"/>
<rect width="1" height="1" transform="matrix(-1 0 0 1 19 12)" fill="black"/>
<rect width="1" height="1" transform="matrix(-1 0 0 1 20 13)" fill="black"/>
<rect width="1" height="1" transform="matrix(-1 0 0 1 21 14)" fill="black"/>
<rect x="16" y="13" width="1" height="1" fill="black"/>
<rect x="19" y="10" width="1" height="1" fill="black"/>
<rect x="20" y="9" width="1" height="1" fill="black"/>
<rect width="1" height="1" transform="matrix(-1 0 0 1 17 10)" fill="black"/>
<rect width="1" height="1" transform="matrix(-1 0 0 1 16 9)" fill="black"/>
<rect width="1" height="1" transform="matrix(-1 0 0 1 16 14)" fill="black"/>
<rect x="17" y="12" width="1" height="1" fill="black"/>
</svg>
