<svg width="24" height="24" viewBox="0 0 24 24" fill="none" xmlns="http://www.w3.org/2000/svg">
<rect width="1" height="1" transform="matrix(1 0 0 -1 2 18)" fill="black"/>
<rect width="1" height="1" transform="matrix(1 0 0 -1 3 17)" fill="black"/>
<rect width="1" height="1" transform="matrix(1 0 0 -1 4 16)" fill="black"/>
<rect width="1" height="1" transform="matrix(1 0 0 -1 5 15)" fill="black"/>
<rect width="1" height="1" transform="matrix(1 0 0 -1 6 14)" fill="black"/>
<rect width="1" height="1" transform="matrix(1 0 0 -1 7 13)" fill="black"/>
<rect width="1" height="1" transform="matrix(1 0 0 -1 8 12)" fill="black"/>
<rect width="1" height="1" transform="matrix(1 0 0 -1 9 11)" fill="black"/>
<rect width="1" height="1" transform="matrix(1 0 0 -1 10 12)" fill="black"/>
<rect width="1" height="1" transform="matrix(1 0 0 -1 11 13)" fill="black"/>
<rect width="1" height="1" transform="matrix(1 0 0 -1 12 14)" fill="black"/>
<rect width="1" height="1" transform="matrix(1 0 0 -1 13 15)" fill="black"/>
<rect width="1" height="1" transform="matrix(1 0 0 -1 14 14)" fill="black"/>
<rect width="1" height="1" transform="matrix(1 0 0 -1 15 13)" fill="black"/>
<rect width="1" height="1" transform="matrix(1 0 0 -1 16 12)" fill="black"/>
<rect width="1" height="1" transform="matrix(1 0 0 -1 17 11)" fill="black"/>
<rect width="1" height="1" transform="matrix(1 0 0 -1 18 10)" fill="black"/>
<rect width="1" height="1" transform="matrix(1 0 0 -1 19 9)" fill="black"/>
<rect width="1" height="1" transform="matrix(1 0 0 -1 20 8)" fill="black"/>
<rect width="1" height="8" transform="matrix(1 0 0 -1 21 14)" fill="black"/>
<rect width="7" height="1" transform="matrix(1 0 0 -1 14 7)" fill="black"/>
</svg>
