<svg width="24" height="24" viewBox="0 0 24 24" fill="none" xmlns="http://www.w3.org/2000/svg">
<rect x="16" y="2" width="1" height="1" transform="rotate(90 16 2)" fill="black"/>
<rect width="1" height="1" transform="matrix(-4.37114e-08 1 1 4.37114e-08 8 11)" fill="black"/>
<rect width="1" height="1" transform="matrix(-4.37114e-08 1 1 4.37114e-08 19 8)" fill="black"/>
<rect x="5" y="17" width="1" height="1" transform="rotate(90 5 17)" fill="black"/>
<rect x="17" y="3" width="1" height="1" transform="rotate(90 17 3)" fill="black"/>
<rect width="1" height="1" transform="matrix(-4.37114e-08 1 1 4.37114e-08 7 12)" fill="black"/>
<rect width="1" height="1" transform="matrix(-4.37114e-08 1 1 4.37114e-08 18 9)" fill="black"/>
<rect x="6" y="18" width="1" height="1" transform="rotate(90 6 18)" fill="black"/>
<rect x="18" y="4" width="1" height="1" transform="rotate(90 18 4)" fill="black"/>
<rect width="1" height="1" transform="matrix(-4.37114e-08 1 1 4.37114e-08 6 13)" fill="black"/>
<rect width="1" height="1" transform="matrix(-4.37114e-08 1 1 4.37114e-08 17 10)" fill="black"/>
<rect x="7" y="19" width="1" height="1" transform="rotate(90 7 19)" fill="black"/>
<rect x="19" y="5" width="1" height="1" transform="rotate(90 19 5)" fill="black"/>
<rect width="1" height="1" transform="matrix(-4.37114e-08 1 1 4.37114e-08 5 14)" fill="black"/>
<rect width="1" height="1" transform="matrix(-4.37114e-08 1 1 4.37114e-08 16 11)" fill="black"/>
<rect x="8" y="20" width="1" height="1" transform="rotate(90 8 20)" fill="black"/>
<rect x="20" y="6" width="1" height="1" transform="rotate(90 20 6)" fill="black"/>
<rect width="1" height="1" transform="matrix(-4.37114e-08 1 1 4.37114e-08 4 15)" fill="black"/>
<rect width="1" height="1" transform="matrix(-4.37114e-08 1 1 4.37114e-08 15 12)" fill="black"/>
<rect x="9" y="21" width="1" height="1" transform="rotate(90 9 21)" fill="black"/>
<rect x="21" y="7" width="1" height="18" transform="rotate(90 21 7)" fill="black"/>
<rect width="1" height="18" transform="matrix(-4.37114e-08 1 1 4.37114e-08 3 16)" fill="black"/>
</svg>
