<svg width="24" height="24" viewBox="0 0 24 24" fill="none" xmlns="http://www.w3.org/2000/svg">
<rect x="17" y="8" width="1" height="1" transform="rotate(-180 17 8)" fill="currentColor"/>
<rect width="1" height="1" transform="matrix(1 4.89013e-08 4.89013e-08 -1 7 8)" fill="currentColor"/>
<rect x="16" y="7" width="1" height="1" transform="rotate(-180 16 7)" fill="currentColor"/>
<rect width="1" height="1" transform="matrix(1 4.89013e-08 4.89013e-08 -1 8 7)" fill="currentColor"/>
<rect x="18" y="15" width="1" height="1" transform="rotate(-90 18 15)" fill="currentColor"/>
<rect width="1" height="1" transform="matrix(2.01144e-08 -1 -1 -2.01144e-08 6 15)" fill="currentColor"/>
<rect x="17" y="16" width="1" height="1" transform="rotate(-90 17 16)" fill="currentColor"/>
<rect width="1" height="1" transform="matrix(2.01144e-08 -1 -1 -2.01144e-08 7 16)" fill="currentColor"/>
<rect x="16" y="17" width="1" height="1" transform="rotate(-90 16 17)" fill="currentColor"/>
<rect width="1" height="1" transform="matrix(2.01144e-08 -1 -1 -2.01144e-08 8 17)" fill="currentColor"/>
<rect x="15" y="18" width="1" height="1" transform="rotate(-90 15 18)" fill="currentColor"/>
<rect width="1" height="1" transform="matrix(2.01144e-08 -1 -1 -2.01144e-08 9 18)" fill="currentColor"/>
<rect x="19" y="14" width="1" height="1" transform="rotate(-90 19 14)" fill="currentColor"/>
<rect width="1" height="1" transform="matrix(2.01144e-08 -1 -1 -2.01144e-08 5 14)" fill="currentColor"/>
<rect width="1" height="1" transform="matrix(-6.73084e-08 1 1 6.73084e-08 20 12)" fill="currentColor"/>
<rect x="4" y="12" width="1" height="1" transform="rotate(90 4 12)" fill="currentColor"/>
<rect width="1" height="1" transform="matrix(-6.73084e-08 1 1 6.73084e-08 19 10)" fill="currentColor"/>
<rect x="5" y="10" width="1" height="1" transform="rotate(90 5 10)" fill="currentColor"/>
<rect width="1" height="1" transform="matrix(-6.73084e-08 1 1 6.73084e-08 20 11)" fill="currentColor"/>
<rect x="4" y="11" width="1" height="1" transform="rotate(90 4 11)" fill="currentColor"/>
<rect width="1" height="1" transform="matrix(-6.73084e-08 1 1 6.73084e-08 18 9)" fill="currentColor"/>
<rect x="6" y="9" width="1" height="1" transform="rotate(90 6 9)" fill="currentColor"/>
<rect width="1" height="1" transform="matrix(-6.73084e-08 1 1 6.73084e-08 17 8)" fill="currentColor"/>
<rect x="7" y="8" width="1" height="1" transform="rotate(90 7 8)" fill="currentColor"/>
<rect x="17" y="13" width="2" height="1" transform="rotate(-90 17 13)" fill="currentColor"/>
<rect width="2" height="1" transform="matrix(2.01144e-08 -1 -1 -2.01144e-08 7 13)" fill="currentColor"/>
<rect x="15" y="13" width="2" height="1" transform="rotate(-90 15 13)" fill="currentColor"/>
<rect width="2" height="1" transform="matrix(2.01144e-08 -1 -1 -2.01144e-08 9 13)" fill="currentColor"/>
<rect x="13" y="13" width="2" height="1" transform="rotate(-90 13 13)" fill="currentColor"/>
<rect width="2" height="1" transform="matrix(2.01144e-08 -1 -1 -2.01144e-08 11 13)" fill="currentColor"/>
</svg>
