<svg width="24" height="24" viewBox="0 0 24 24" fill="none" xmlns="http://www.w3.org/2000/svg">
<rect x="10" y="10" width="5" height="1" fill="currentColor"/>
<rect x="10" y="14" width="5" height="1" fill="currentColor"/>
<rect x="10" y="11" width="1" height="3" fill="currentColor"/>
<rect x="14" y="11" width="1" height="3" fill="currentColor"/>
<rect x="12" y="2" width="1" height="8" fill="currentColor"/>
<rect x="7" y="2" width="4" height="1" fill="currentColor"/>
<rect width="10" height="1" transform="matrix(1 0 0 -1 7 22)" fill="currentColor"/>
<rect x="5" y="3" width="2" height="1" fill="currentColor"/>
<rect width="2" height="1" transform="matrix(-1 0 0 1 19 3)" fill="currentColor"/>
<rect width="2" height="1" transform="matrix(1 0 0 -1 5 21)" fill="currentColor"/>
<rect x="19" y="21" width="2" height="1" transform="rotate(-180 19 21)" fill="currentColor"/>
<rect x="4" y="4" width="1" height="1" fill="currentColor"/>
<rect width="1" height="1" transform="matrix(-1 0 0 1 20 4)" fill="currentColor"/>
<rect width="1" height="1" transform="matrix(1 0 0 -1 4 20)" fill="currentColor"/>
<rect x="20" y="20" width="1" height="1" transform="rotate(-180 20 20)" fill="currentColor"/>
<rect x="3" y="5" width="1" height="2" fill="currentColor"/>
<rect width="1" height="2" transform="matrix(-1 0 0 1 21 5)" fill="currentColor"/>
<rect width="1" height="2" transform="matrix(1 0 0 -1 3 19)" fill="currentColor"/>
<rect x="21" y="19" width="1" height="2" transform="rotate(-180 21 19)" fill="currentColor"/>
<rect x="2" y="7" width="1" height="10" fill="currentColor"/>
<rect width="1" height="10" transform="matrix(-1 0 0 1 22 7)" fill="currentColor"/>
<rect x="8" y="6" width="3" height="1" fill="currentColor"/>
<rect x="7" y="7" width="1" height="1" fill="currentColor"/>
<rect x="6" y="8" width="1" height="8" fill="currentColor"/>
<rect x="7" y="16" width="1" height="1" fill="currentColor"/>
<rect x="8" y="17" width="8" height="1" fill="currentColor"/>
<rect x="16" y="16" width="1" height="1" fill="currentColor"/>
<rect x="17" y="8" width="1" height="8" fill="currentColor"/>
<rect x="16" y="7" width="1" height="1" fill="currentColor"/>
</svg>
