<svg width="24" height="24" viewBox="0 0 24 24" fill="none" xmlns="http://www.w3.org/2000/svg">
<rect x="7" y="11" width="14" height="1" fill="currentColor"/>
<rect x="19" y="10" width="1" height="1" fill="currentColor"/>
<rect width="1" height="1" transform="matrix(1 0 0 -1 19 13)" fill="currentColor"/>
<rect x="18" y="9" width="1" height="1" fill="currentColor"/>
<rect width="1" height="1" transform="matrix(1 0 0 -1 18 14)" fill="currentColor"/>
<rect x="17" y="8" width="1" height="1" fill="currentColor"/>
<rect width="1" height="1" transform="matrix(1 0 0 -1 17 15)" fill="currentColor"/>
<rect x="16" y="7" width="1" height="1" fill="currentColor"/>
<rect width="1" height="1" transform="matrix(1 0 0 -1 16 16)" fill="currentColor"/>
<rect width="1" height="4" transform="matrix(-1 0 0 1 21 3)" fill="currentColor"/>
<rect width="1" height="5" transform="matrix(-1 0 0 1 21 16)" fill="currentColor"/>
<rect x="4" y="20" width="17" height="1" fill="currentColor"/>
<rect width="17" height="1" transform="matrix(-1 0 0 1 20 3)" fill="currentColor"/>
<rect width="1" height="17" transform="matrix(-1 0 0 1 4 4)" fill="currentColor"/>
</svg>
