<svg width="24" height="24" viewBox="0 0 24 24" fill="none" xmlns="http://www.w3.org/2000/svg">
<rect width="1" height="1" transform="matrix(-4.37114e-08 -1 -1 4.37114e-08 8 16)" fill="black"/>
<rect width="1" height="1" transform="matrix(-4.37114e-08 -1 -1 4.37114e-08 7 15)" fill="black"/>
<rect width="1" height="1" transform="matrix(-1 8.74228e-08 8.74228e-08 1 15 17)" fill="black"/>
<rect width="1" height="1" transform="matrix(-1 8.74228e-08 8.74228e-08 1 16 16)" fill="black"/>
<rect width="1" height="1" transform="matrix(-1 8.74228e-08 8.74228e-08 1 17 15)" fill="black"/>
<rect width="1" height="1" transform="matrix(-1 8.74228e-08 8.74228e-08 1 18 14)" fill="black"/>
<rect width="1" height="1" transform="matrix(-1 8.74228e-08 8.74228e-08 1 14 18)" fill="black"/>
<rect x="12" y="19" width="1" height="1" fill="black"/>
<rect x="10" y="18" width="1" height="1" fill="black"/>
<rect x="11" y="19" width="1" height="1" fill="black"/>
<rect x="9" y="17" width="1" height="1" fill="black"/>
<rect x="8" y="16" width="1" height="1" fill="black"/>
<rect width="2" height="1" transform="matrix(-1 8.74228e-08 8.74228e-08 1 13 10)" fill="black"/>
<rect width="2" height="1" transform="matrix(-1 8.74228e-08 8.74228e-08 1 13 16)" fill="black"/>
<rect width="2" height="1" transform="matrix(-1 8.74228e-08 8.74228e-08 1 13 8)" fill="black"/>
<rect width="2" height="1" transform="matrix(-1 8.74228e-08 8.74228e-08 1 13 14)" fill="black"/>
<rect width="2" height="1" transform="matrix(-1 8.74228e-08 8.74228e-08 1 13 6)" fill="black"/>
<rect width="2" height="1" transform="matrix(-1 8.74228e-08 8.74228e-08 1 13 4)" fill="black"/>
<rect width="2" height="1" transform="matrix(-1 8.74228e-08 8.74228e-08 1 13 12)" fill="black"/>
</svg>
