<svg width="24" height="24" viewBox="0 0 24 24" fill="none" xmlns="http://www.w3.org/2000/svg">
<rect x="2" y="4" width="20" height="1" fill="black"/>
<rect x="2" y="19" width="20" height="1" fill="black"/>
<rect x="2" y="5" width="1" height="14" fill="black"/>
<rect x="21" y="5" width="1" height="14" fill="black"/>
<rect x="4" y="6" width="1" height="1" fill="black"/>
<rect x="4" y="17" width="1" height="1" fill="black"/>
<rect x="19" y="6" width="1" height="1" fill="black"/>
<rect x="19" y="17" width="1" height="1" fill="black"/>
<rect x="6" y="9" width="3" height="1" fill="black"/>
<rect x="6" y="11" width="3" height="1" fill="black"/>
<rect x="6" y="10" width="1" height="1" fill="black"/>
<rect x="8" y="10" width="1" height="1" fill="black"/>
<rect x="5" y="14" width="1" height="1" fill="black"/>
<rect x="6" y="13" width="3" height="2" fill="black"/>
<rect x="9" y="14" width="1" height="1" fill="black"/>
<rect x="12" y="9" width="7" height="1" fill="black"/>
<rect x="12" y="11" width="7" height="1" fill="black"/>
<rect x="12" y="13" width="4" height="1" fill="black"/>
</svg>
