<svg width="24" height="24" viewBox="0 0 24 24" fill="none" xmlns="http://www.w3.org/2000/svg">
<rect x="3" y="2" width="1" height="20" fill="currentColor"/>
<rect x="4" y="2" width="10" height="1" fill="currentColor"/>
<rect x="14" y="3" width="1" height="1" fill="currentColor"/>
<rect x="15" y="4" width="1" height="1" fill="currentColor"/>
<rect x="16" y="5" width="1" height="1" fill="currentColor"/>
<rect x="17" y="6" width="1" height="1" fill="currentColor"/>
<rect x="18" y="7" width="1" height="1" fill="currentColor"/>
<rect x="19" y="8" width="1" height="1" fill="currentColor"/>
<rect x="20" y="9" width="1" height="13" fill="currentColor"/>
<rect x="4" y="21" width="16" height="1" fill="currentColor"/>
<rect x="13" y="3" width="1" height="7" fill="currentColor"/>
<rect x="14" y="9" width="6" height="1" fill="currentColor"/>
<rect x="6" y="18" width="6" height="1" fill="currentColor"/>
<rect x="6" y="16" width="10" height="1" fill="currentColor"/>
<rect x="6" y="14" width="10" height="1" fill="currentColor"/>
<rect x="6" y="12" width="12" height="1" fill="currentColor"/>
</svg>
