<svg width="24" height="24" viewBox="0 0 24 24" fill="none" xmlns="http://www.w3.org/2000/svg">
<rect x="3" y="3" width="18" height="1" fill="black"/>
<rect x="3" y="20" width="18" height="1" fill="black"/>
<rect x="3" y="4" width="1" height="16" fill="black"/>
<rect x="20" y="4" width="1" height="16" fill="black"/>
<rect x="5" y="5" width="4" height="1" fill="black"/>
<rect x="5" y="10" width="4" height="1" fill="black"/>
<rect x="5" y="8" width="4" height="1" fill="black"/>
<rect x="5" y="13" width="4" height="1" fill="black"/>
<rect x="10" y="5" width="4" height="1" fill="black"/>
<rect x="10" y="10" width="4" height="1" fill="black"/>
<rect x="5" y="15" width="14" height="1" fill="black"/>
<rect x="10" y="8" width="4" height="1" fill="black"/>
<rect x="10" y="13" width="4" height="1" fill="black"/>
<rect x="5" y="18" width="14" height="1" fill="black"/>
<rect x="15" y="5" width="4" height="1" fill="black"/>
<rect x="15" y="10" width="4" height="1" fill="black"/>
<rect x="15" y="8" width="4" height="1" fill="black"/>
<rect x="15" y="13" width="4" height="1" fill="black"/>
<rect x="5" y="6" width="1" height="2" fill="black"/>
<rect x="5" y="11" width="1" height="2" fill="black"/>
<rect x="10" y="6" width="1" height="2" fill="black"/>
<rect x="10" y="11" width="1" height="2" fill="black"/>
<rect x="5" y="16" width="1" height="2" fill="black"/>
<rect x="15" y="6" width="1" height="2" fill="black"/>
<rect x="15" y="11" width="1" height="2" fill="black"/>
<rect x="8" y="6" width="1" height="2" fill="black"/>
<rect x="8" y="11" width="1" height="2" fill="black"/>
<rect x="13" y="6" width="1" height="2" fill="black"/>
<rect x="13" y="11" width="1" height="2" fill="black"/>
<rect x="18" y="16" width="1" height="2" fill="black"/>
<rect x="18" y="6" width="1" height="2" fill="black"/>
<rect x="18" y="11" width="1" height="2" fill="black"/>
</svg>
