<svg width="24" height="24" viewBox="0 0 24 24" fill="none" xmlns="http://www.w3.org/2000/svg">
<rect x="10" y="2" width="1" height="4" fill="black"/>
<rect x="13" y="2" width="1" height="4" fill="black"/>
<rect x="11" y="2" width="2" height="1" fill="black"/>
<rect x="11" y="5" width="2" height="1" fill="black"/>
<rect x="8" y="7" width="8" height="1" fill="black"/>
<rect x="9" y="8" width="1" height="14" fill="black"/>
<rect x="14" y="8" width="1" height="14" fill="black"/>
<rect x="10" y="15" width="4" height="1" fill="black"/>
<rect x="16" y="8" width="1" height="1" fill="black"/>
<rect x="7" y="8" width="1" height="1" fill="black"/>
<rect x="6" y="9" width="1" height="1" fill="black"/>
<rect x="5" y="10" width="1" height="1" fill="black"/>
<rect x="4" y="11" width="1" height="1" fill="black"/>
<rect x="3" y="12" width="1" height="1" fill="black"/>
<rect x="17" y="9" width="1" height="1" fill="black"/>
<rect x="18" y="10" width="1" height="1" fill="black"/>
<rect x="19" y="11" width="1" height="1" fill="black"/>
<rect x="20" y="12" width="1" height="1" fill="black"/>
</svg>
