<svg width="24" height="24" viewBox="0 0 24 24" fill="none" xmlns="http://www.w3.org/2000/svg">
<rect x="2" y="4" width="20" height="1" fill="currentColor"/>
<rect x="2" y="19" width="11" height="1" fill="currentColor"/>
<rect x="2" y="5" width="1" height="14" fill="currentColor"/>
<rect x="21" y="5" width="1" height="7" fill="currentColor"/>
<rect x="4" y="6" width="1" height="1" fill="currentColor"/>
<rect width="1" height="1" transform="matrix(-1 0 0 1 20 6)" fill="currentColor"/>
<rect x="5" y="7" width="1" height="1" fill="currentColor"/>
<rect width="1" height="1" transform="matrix(-1 0 0 1 19 7)" fill="currentColor"/>
<rect x="6" y="8" width="1" height="1" fill="currentColor"/>
<rect width="1" height="1" transform="matrix(-1 0 0 1 18 8)" fill="currentColor"/>
<rect x="7" y="9" width="1" height="1" fill="currentColor"/>
<rect width="1" height="1" transform="matrix(-1 0 0 1 17 9)" fill="currentColor"/>
<rect x="8" y="10" width="1" height="1" fill="currentColor"/>
<rect width="1" height="1" transform="matrix(-1 0 0 1 16 10)" fill="currentColor"/>
<rect x="9" y="11" width="1" height="1" fill="currentColor"/>
<rect width="1" height="1" transform="matrix(-1 0 0 1 15 11)" fill="currentColor"/>
<rect x="10" y="12" width="1" height="1" fill="currentColor"/>
<rect width="1" height="1" transform="matrix(-1 0 0 1 14 12)" fill="currentColor"/>
<rect x="11" y="13" width="2" height="1" fill="currentColor"/>
<rect x="15" y="18" width="1" height="1" fill="currentColor"/>
<rect x="16" y="19" width="1" height="1" fill="currentColor"/>
<rect x="17" y="20" width="1" height="1" fill="currentColor"/>
<rect x="18" y="19" width="1" height="1" fill="currentColor"/>
<rect x="19" y="18" width="1" height="1" fill="currentColor"/>
<rect x="20" y="17" width="1" height="1" fill="currentColor"/>
<rect x="21" y="16" width="1" height="1" fill="currentColor"/>
<rect x="22" y="15" width="1" height="1" fill="currentColor"/>
</svg>
