<svg width="24" height="24" viewBox="0 0 24 24" fill="none" xmlns="http://www.w3.org/2000/svg">
<rect x="1" y="11" width="1" height="2" fill="currentColor"/>
<rect width="1" height="2" transform="matrix(-1 0 0 1 23 11)" fill="currentColor"/>
<rect x="2" y="10" width="1" height="1" fill="currentColor"/>
<rect width="1" height="1" transform="matrix(1 0 0 -1 2 14)" fill="currentColor"/>
<rect width="1" height="1" transform="matrix(-1 0 0 1 22 10)" fill="currentColor"/>
<rect x="22" y="14" width="1" height="1" transform="rotate(-180 22 14)" fill="currentColor"/>
<rect x="3" y="9" width="1" height="1" fill="currentColor"/>
<rect width="1" height="1" transform="matrix(1 0 0 -1 3 15)" fill="currentColor"/>
<rect width="1" height="1" transform="matrix(-1 0 0 1 21 9)" fill="currentColor"/>
<rect x="21" y="15" width="1" height="1" transform="rotate(-180 21 15)" fill="currentColor"/>
<rect x="4" y="8" width="1" height="1" fill="currentColor"/>
<rect width="1" height="1" transform="matrix(1 0 0 -1 4 16)" fill="currentColor"/>
<rect width="1" height="1" transform="matrix(-1 0 0 1 20 8)" fill="currentColor"/>
<rect x="20" y="16" width="1" height="1" transform="rotate(-180 20 16)" fill="currentColor"/>
<rect x="5" y="7" width="1" height="1" fill="currentColor"/>
<rect width="1" height="1" transform="matrix(1 0 0 -1 5 17)" fill="currentColor"/>
<rect width="1" height="1" transform="matrix(-1 0 0 1 19 7)" fill="currentColor"/>
<rect x="19" y="17" width="1" height="1" transform="rotate(-180 19 17)" fill="currentColor"/>
<rect x="6" y="6" width="2" height="1" fill="currentColor"/>
<rect width="2" height="1" transform="matrix(1 0 0 -1 6 18)" fill="currentColor"/>
<rect width="2" height="1" transform="matrix(-1 0 0 1 18 6)" fill="currentColor"/>
<rect x="18" y="18" width="2" height="1" transform="rotate(-180 18 18)" fill="currentColor"/>
<rect x="8" y="5" width="8" height="1" fill="currentColor"/>
<rect width="8" height="1" transform="matrix(1 0 0 -1 8 19)" fill="currentColor"/>
<rect x="11" y="10" width="2" height="1" fill="currentColor"/>
<rect x="10" y="11" width="1" height="2" fill="currentColor"/>
<rect x="11" y="13" width="2" height="1" fill="currentColor"/>
<rect x="13" y="11" width="1" height="2" fill="currentColor"/>
</svg>
