<svg width="24" height="24" viewBox="0 0 24 24" fill="none" xmlns="http://www.w3.org/2000/svg">
<g clip-path="url(#clip0_1526_19724)">
<rect x="12" y="2" width="6" height="1" fill="currentColor"/>
<rect x="11" y="3" width="1" height="1" fill="currentColor"/>
<rect x="10" y="4" width="1" height="6" fill="currentColor"/>
<rect x="11" y="10" width="1" height="1" fill="currentColor"/>
<rect x="12" y="11" width="6" height="1" fill="currentColor"/>
<rect x="18" y="10" width="1" height="1" fill="currentColor"/>
<rect x="19" y="4" width="1" height="6" fill="currentColor"/>
<rect x="18" y="3" width="1" height="1" fill="currentColor"/>
<rect x="11" y="14" width="8" height="1" fill="currentColor"/>
<rect x="9" y="15" width="2" height="1" fill="currentColor"/>
<rect width="2" height="1" transform="matrix(-1 0 0 1 21 15)" fill="currentColor"/>
<rect x="8" y="16" width="1" height="1" fill="currentColor"/>
<rect width="1" height="1" transform="matrix(-1 0 0 1 22 16)" fill="currentColor"/>
<rect x="7" y="17" width="1" height="2" fill="currentColor"/>
<rect width="1" height="2" transform="matrix(-1 0 0 1 23 17)" fill="currentColor"/>
<rect x="6" y="19" width="1" height="3" fill="currentColor"/>
<rect width="1" height="3" transform="matrix(-1 0 0 1 24 19)" fill="currentColor"/>
<rect x="4" y="7" width="1" height="9" fill="currentColor"/>
<rect x="9" y="11" width="1" height="9" transform="rotate(90 9 11)" fill="currentColor"/>
</g>
<defs>
<clipPath id="clip0_1526_19724">
<rect width="24" height="24" fill="white"/>
</clipPath>
</defs>
</svg>
