<svg width="24" height="24" viewBox="0 0 24 24" fill="none" xmlns="http://www.w3.org/2000/svg">
<rect width="1" height="1" transform="matrix(1 0 0 -1 6 9)" fill="black"/>
<rect x="6" y="15" width="1" height="1" fill="black"/>
<rect width="1" height="1" transform="matrix(1 0 0 -1 7 8)" fill="black"/>
<rect x="7" y="16" width="1" height="1" fill="black"/>
<rect width="1" height="1" transform="matrix(1 0 0 -1 8 7)" fill="black"/>
<rect x="8" y="17" width="1" height="1" fill="black"/>
<rect width="1" height="1" transform="matrix(1 0 0 -1 9 6)" fill="black"/>
<rect x="9" y="18" width="1" height="1" fill="black"/>
<rect width="1" height="1" transform="matrix(1 0 0 -1 10 5)" fill="black"/>
<rect x="10" y="19" width="1" height="1" fill="black"/>
<rect width="1" height="1" transform="matrix(1 0 0 -1 13 5)" fill="black"/>
<rect x="13" y="19" width="1" height="1" fill="black"/>
<rect width="1" height="1" transform="matrix(1 0 0 -1 14 6)" fill="black"/>
<rect x="14" y="18" width="1" height="1" fill="black"/>
<rect width="1" height="1" transform="matrix(1 0 0 -1 15 7)" fill="black"/>
<rect x="15" y="17" width="1" height="1" fill="black"/>
<rect width="1" height="1" transform="matrix(1 0 0 -1 16 8)" fill="black"/>
<rect x="16" y="16" width="1" height="1" fill="black"/>
<rect width="1" height="1" transform="matrix(1 0 0 -1 17 9)" fill="black"/>
<rect x="17" y="15" width="1" height="1" fill="black"/>
<rect width="2" height="1" transform="matrix(1 0 0 -1 11 4)" fill="black"/>
<rect x="11" y="20" width="2" height="1" fill="black"/>
<rect x="4" y="12" width="16" height="1" fill="black"/>
</svg>
