<svg width="24" height="24" viewBox="0 0 24 24" fill="none" xmlns="http://www.w3.org/2000/svg">
<rect x="6" y="3" width="1" height="18" fill="black"/>
<rect x="17" y="3" width="1" height="18" fill="black"/>
<rect x="7" y="3" width="10" height="1" fill="black"/>
<rect x="7" y="20" width="10" height="1" fill="black"/>
<rect x="11" y="18" width="2" height="1" fill="black"/>
<rect x="10" y="4" width="1" height="1" fill="black"/>
<rect x="10" y="5" width="4" height="1" fill="black"/>
<rect x="13" y="4" width="1" height="1" fill="black"/>
<rect x="20" y="7" width="1" height="1" fill="black"/>
<rect width="1" height="1" transform="matrix(-1 0 0 1 4 7)" fill="black"/>
<rect x="21" y="8" width="1" height="1" fill="black"/>
<rect width="1" height="1" transform="matrix(-1 0 0 1 3 8)" fill="black"/>
<rect x="22" y="9" width="1" height="1" fill="black"/>
<rect width="1" height="1" transform="matrix(-1 0 0 1 2 9)" fill="black"/>
<rect x="21" y="10" width="1" height="1" fill="black"/>
<rect width="1" height="1" transform="matrix(-1 0 0 1 3 10)" fill="black"/>
<rect x="20" y="11" width="1" height="1" fill="black"/>
<rect width="1" height="1" transform="matrix(-1 0 0 1 4 11)" fill="black"/>
<rect x="21" y="12" width="1" height="1" fill="black"/>
<rect width="1" height="1" transform="matrix(-1 0 0 1 3 12)" fill="black"/>
<rect x="22" y="13" width="1" height="1" fill="black"/>
<rect width="1" height="1" transform="matrix(-1 0 0 1 2 13)" fill="black"/>
<rect x="21" y="14" width="1" height="1" fill="black"/>
<rect width="1" height="1" transform="matrix(-1 0 0 1 3 14)" fill="black"/>
<rect x="20" y="15" width="1" height="1" fill="black"/>
<rect width="1" height="1" transform="matrix(-1 0 0 1 4 15)" fill="black"/>
</svg>
