<svg width="24" height="24" viewBox="0 0 24 24" fill="none" xmlns="http://www.w3.org/2000/svg">
<rect width="1" height="1" transform="matrix(-1 0 0 1 10 3)" fill="black"/>
<rect width="1" height="1" transform="matrix(-1 0 0 1 9 4)" fill="black"/>
<rect width="1" height="1" transform="matrix(-1 0 0 1 8 5)" fill="black"/>
<rect width="1" height="1" transform="matrix(-1 0 0 1 7 6)" fill="black"/>
<rect width="1" height="1" transform="matrix(-1 0 0 1 6 7)" fill="black"/>
<rect width="14" height="1" transform="matrix(-1 0 0 1 18 8)" fill="black"/>
<rect width="1" height="1" transform="matrix(-1 0 0 1 6 9)" fill="black"/>
<rect width="1" height="1" transform="matrix(-1 0 0 1 7 10)" fill="black"/>
<rect width="1" height="1" transform="matrix(-1 0 0 1 8 11)" fill="black"/>
<rect width="1" height="1" transform="matrix(-1 0 0 1 9 12)" fill="black"/>
<rect width="1" height="1" transform="matrix(-1 0 0 1 10 13)" fill="black"/>
<rect width="1" height="1" transform="matrix(-1 0 0 1 19 9)" fill="black"/>
<rect width="1" height="9" transform="matrix(-1 0 0 1 20 10)" fill="black"/>
<rect width="1" height="1" transform="matrix(-1 0 0 1 19 19)" fill="black"/>
<rect width="6" height="1" transform="matrix(-1 0 0 1 18 20)" fill="black"/>
</svg>
