<svg width="24" height="24" viewBox="0 0 24 24" fill="none" xmlns="http://www.w3.org/2000/svg">
<rect x="8" y="7" width="1" height="1" transform="rotate(90 8 7)" fill="black"/>
<rect width="1" height="1" transform="matrix(5.18986e-09 -1 -1 -5.18986e-09 8 17)" fill="black"/>
<rect x="7" y="8" width="1" height="1" transform="rotate(90 7 8)" fill="black"/>
<rect width="1" height="1" transform="matrix(5.18986e-09 -1 -1 -5.18986e-09 7 16)" fill="black"/>
<rect x="15" y="6" width="1" height="1" transform="rotate(-180 15 6)" fill="black"/>
<rect width="1" height="1" transform="matrix(-1 2.3597e-08 2.3597e-08 1 15 18)" fill="black"/>
<rect x="16" y="7" width="1" height="1" transform="rotate(-180 16 7)" fill="black"/>
<rect width="1" height="1" transform="matrix(-1 2.3597e-08 2.3597e-08 1 16 17)" fill="black"/>
<rect x="17" y="8" width="1" height="1" transform="rotate(-180 17 8)" fill="black"/>
<rect width="1" height="1" transform="matrix(-1 2.3597e-08 2.3597e-08 1 17 16)" fill="black"/>
<rect x="18" y="9" width="1" height="1" transform="rotate(-180 18 9)" fill="black"/>
<rect width="1" height="1" transform="matrix(-1 2.3597e-08 2.3597e-08 1 18 15)" fill="black"/>
<rect x="14" y="5" width="1" height="1" transform="rotate(-180 14 5)" fill="black"/>
<rect width="1" height="1" transform="matrix(-1 2.3597e-08 2.3597e-08 1 14 19)" fill="black"/>
<rect width="1" height="1" transform="matrix(1 2.3597e-08 2.3597e-08 -1 12 4)" fill="black"/>
<rect x="12" y="20" width="1" height="1" fill="black"/>
<rect width="1" height="1" transform="matrix(1 2.3597e-08 2.3597e-08 -1 10 5)" fill="black"/>
<rect x="10" y="19" width="1" height="1" fill="black"/>
<rect width="1" height="1" transform="matrix(1 2.3597e-08 2.3597e-08 -1 11 4)" fill="black"/>
<rect x="11" y="20" width="1" height="1" fill="black"/>
<rect width="1" height="1" transform="matrix(1 2.3597e-08 2.3597e-08 -1 9 6)" fill="black"/>
<rect x="9" y="18" width="1" height="1" fill="black"/>
<rect width="1" height="1" transform="matrix(1 2.3597e-08 2.3597e-08 -1 8 7)" fill="black"/>
<rect x="8" y="17" width="1" height="1" fill="black"/>
<rect x="13" y="7" width="2" height="1" transform="rotate(-180 13 7)" fill="black"/>
<rect width="2" height="1" transform="matrix(-1 2.3597e-08 2.3597e-08 1 13 17)" fill="black"/>
<rect x="13" y="9" width="2" height="1" transform="rotate(-180 13 9)" fill="black"/>
<rect width="2" height="1" transform="matrix(-1 2.3597e-08 2.3597e-08 1 13 15)" fill="black"/>
<rect x="13" y="11" width="2" height="1" transform="rotate(-180 13 11)" fill="black"/>
<rect width="2" height="1" transform="matrix(-1 2.3597e-08 2.3597e-08 1 13 13)" fill="black"/>
</svg>
