<svg width="24" height="24" viewBox="0 0 24 24" fill="none" xmlns="http://www.w3.org/2000/svg">
<rect x="2" y="5" width="14" height="1" fill="black"/>
<rect x="2" y="18" width="14" height="1" fill="black"/>
<rect x="2" y="6" width="1" height="12" fill="black"/>
<rect x="15" y="6" width="1" height="12" fill="black"/>
<rect x="16" y="9" width="1" height="1" fill="black"/>
<rect x="17" y="8" width="1" height="1" fill="black"/>
<rect x="18" y="7" width="1" height="1" fill="black"/>
<rect x="19" y="6" width="1" height="1" fill="black"/>
<rect x="20" y="5" width="2" height="1" fill="black"/>
<rect x="21" y="6" width="1" height="12" fill="black"/>
<rect x="20" y="18" width="2" height="1" fill="black"/>
<rect x="19" y="17" width="1" height="1" fill="black"/>
<rect x="18" y="16" width="1" height="1" fill="black"/>
<rect x="17" y="15" width="1" height="1" fill="black"/>
<rect x="16" y="14" width="1" height="1" fill="black"/>
</svg>
