<svg width="24" height="24" viewBox="0 0 24 24" fill="none" xmlns="http://www.w3.org/2000/svg">
<rect width="18" height="1" transform="matrix(-1 0 0 1 21 11)" fill="currentColor"/>
<rect width="10" height="1" transform="matrix(-1 0 0 1 13 8)" fill="currentColor"/>
<rect width="10" height="1" transform="matrix(-1 0 0 1 13 14)" fill="currentColor"/>
<rect width="1" height="1" transform="matrix(-1 0 0 1 20 10)" fill="currentColor"/>
<rect x="20" y="13" width="1" height="1" transform="rotate(-180 20 13)" fill="currentColor"/>
<rect width="1" height="1" transform="matrix(-1 0 0 1 19 9)" fill="currentColor"/>
<rect x="19" y="14" width="1" height="1" transform="rotate(-180 19 14)" fill="currentColor"/>
<rect width="1" height="1" transform="matrix(-1 0 0 1 18 8)" fill="currentColor"/>
<rect x="18" y="15" width="1" height="1" transform="rotate(-180 18 15)" fill="currentColor"/>
<rect width="1" height="1" transform="matrix(-1 0 0 1 17 7)" fill="currentColor"/>
<rect x="17" y="16" width="1" height="1" transform="rotate(-180 17 16)" fill="currentColor"/>
<rect width="1" height="1" transform="matrix(-1 0 0 1 16 6)" fill="currentColor"/>
<rect x="16" y="17" width="1" height="1" transform="rotate(-180 16 17)" fill="currentColor"/>
</svg>
