<svg width="24" height="24" viewBox="0 0 24 24" fill="none" xmlns="http://www.w3.org/2000/svg">
<rect x="3" y="4" width="1" height="18" transform="rotate(-90 3 4)" fill="currentColor"/>
<rect x="20" y="21" width="17" height="1" transform="rotate(-90 20 21)" fill="currentColor"/>
<rect x="3" y="21" width="1" height="18" transform="rotate(-90 3 21)" fill="currentColor"/>
<rect x="3" y="21" width="17" height="1" transform="rotate(-90 3 21)" fill="currentColor"/>
<rect width="1" height="1" transform="matrix(-1 8.74228e-08 8.74228e-08 1 14 16)" fill="currentColor"/>
<rect width="1" height="1" transform="matrix(1.31134e-07 1 1 -1.31134e-07 15 9)" fill="currentColor"/>
<rect width="1" height="1" transform="matrix(1.31134e-07 1 1 -1.31134e-07 14 8)" fill="currentColor"/>
<rect width="1" height="1" transform="matrix(1.31134e-07 1 1 -1.31134e-07 13 7)" fill="currentColor"/>
<rect width="1" height="1" transform="matrix(1.31134e-07 1 1 -1.31134e-07 16 10)" fill="currentColor"/>
<rect x="17" y="12" width="1" height="1" transform="rotate(-90 17 12)" fill="currentColor"/>
<rect x="16" y="14" width="1" height="1" transform="rotate(-90 16 14)" fill="currentColor"/>
<rect x="17" y="13" width="1" height="1" transform="rotate(-90 17 13)" fill="currentColor"/>
<rect x="15" y="15" width="1" height="1" transform="rotate(-90 15 15)" fill="currentColor"/>
<rect x="14" y="16" width="1" height="1" transform="rotate(-90 14 16)" fill="currentColor"/>
<rect width="2" height="1" transform="matrix(1.31134e-07 1 1 -1.31134e-07 8 11)" fill="currentColor"/>
<rect width="2" height="1" transform="matrix(1.31134e-07 1 1 -1.31134e-07 14 11)" fill="currentColor"/>
<rect width="2" height="1" transform="matrix(1.31134e-07 1 1 -1.31134e-07 6 11)" fill="currentColor"/>
<rect width="2" height="1" transform="matrix(1.31134e-07 1 1 -1.31134e-07 12 11)" fill="currentColor"/>
<rect width="2" height="1" transform="matrix(1.31134e-07 1 1 -1.31134e-07 10 11)" fill="currentColor"/>
</svg>
