<svg width="24" height="24" viewBox="0 0 24 24" fill="none" xmlns="http://www.w3.org/2000/svg">
<rect x="16" y="3" width="1" height="2" fill="currentColor"/>
<rect x="15" y="5" width="1" height="2" fill="currentColor"/>
<rect x="14" y="7" width="1" height="2" fill="currentColor"/>
<rect x="13" y="9" width="1" height="2" fill="currentColor"/>
<rect x="12" y="11" width="1" height="2" fill="currentColor"/>
<rect x="11" y="13" width="1" height="2" fill="currentColor"/>
<rect x="10" y="15" width="1" height="2" fill="currentColor"/>
<rect x="9" y="17" width="1" height="2" fill="currentColor"/>
<rect x="8" y="19" width="1" height="2" fill="currentColor"/>
<rect x="5" y="4" width="8" height="1" fill="currentColor"/>
<rect x="12" y="19" width="7" height="1" fill="currentColor"/>
<rect x="3" y="5" width="2" height="1" fill="currentColor"/>
<rect width="2" height="1" transform="matrix(-1 0 0 1 21 5)" fill="currentColor"/>
<rect width="2" height="1" transform="matrix(1 0 0 -1 3 19)" fill="currentColor"/>
<rect x="21" y="19" width="2" height="1" transform="rotate(-180 21 19)" fill="currentColor"/>
<rect x="2" y="6" width="1" height="1" fill="currentColor"/>
<rect width="1" height="1" transform="matrix(-1 0 0 1 22 6)" fill="currentColor"/>
<rect width="1" height="1" transform="matrix(1 0 0 -1 2 18)" fill="currentColor"/>
<rect x="22" y="18" width="1" height="1" transform="rotate(-180 22 18)" fill="currentColor"/>
<rect x="1" y="7" width="1" height="2" fill="currentColor"/>
<rect width="1" height="2" transform="matrix(-1 0 0 1 23 7)" fill="currentColor"/>
<rect width="1" height="2" transform="matrix(1 0 0 -1 1 17)" fill="currentColor"/>
<rect x="23" y="17" width="1" height="2" transform="rotate(-180 23 17)" fill="currentColor"/>
<rect y="9" width="1" height="6" fill="currentColor"/>
<rect width="1" height="6" transform="matrix(-1 0 0 1 24 9)" fill="currentColor"/>
<rect x="5" y="10" width="5" height="1" fill="currentColor"/>
<rect x="19" y="14" width="4" height="1" transform="rotate(-180 19 14)" fill="currentColor"/>
<rect x="5" y="13" width="4" height="1" fill="currentColor"/>
<rect x="19" y="11" width="3" height="1" transform="rotate(-180 19 11)" fill="currentColor"/>
</svg>
