<svg width="24" height="24" viewBox="0 0 24 24" fill="none" xmlns="http://www.w3.org/2000/svg">
<rect x="5" y="6" width="14" height="1" fill="currentColor"/>
<rect x="5" y="19" width="14" height="1" fill="currentColor"/>
<rect x="7" y="20" width="1" height="2" fill="currentColor"/>
<rect x="14" y="20" width="1" height="2" fill="currentColor"/>
<rect x="9" y="20" width="1" height="2" fill="currentColor"/>
<rect x="16" y="20" width="1" height="2" fill="currentColor"/>
<rect x="8" y="21" width="1" height="1" fill="currentColor"/>
<rect x="15" y="21" width="1" height="1" fill="currentColor"/>
<rect x="5" y="7" width="1" height="12" fill="currentColor"/>
<rect x="18" y="7" width="1" height="12" fill="currentColor"/>
<rect x="9" y="10" width="1" height="6" fill="currentColor"/>
<rect x="14" y="10" width="1" height="6" fill="currentColor"/>
<rect x="9" y="3" width="1" height="3" fill="currentColor"/>
<rect x="10" y="2" width="4" height="1" fill="currentColor"/>
<rect x="14" y="3" width="1" height="3" fill="currentColor"/>
</svg>
