<svg width="24" height="24" viewBox="0 0 24 24" fill="none" xmlns="http://www.w3.org/2000/svg">
<rect x="3" y="7" width="18" height="1" fill="black"/>
<rect x="3" y="20" width="9" height="1" fill="black"/>
<rect x="2" y="8" width="1" height="12" fill="black"/>
<rect x="21" y="8" width="1" height="3" fill="black"/>
<rect x="8" y="4" width="1" height="3" fill="black"/>
<rect x="9" y="3" width="6" height="1" fill="black"/>
<rect x="15" y="4" width="1" height="3" fill="black"/>
<rect x="16" y="13" width="5" height="1" fill="black"/>
<rect x="14" y="15" width="1" height="5" fill="black"/>
<rect x="16" y="21" width="5" height="1" fill="black"/>
<rect x="22" y="15" width="1" height="5" fill="black"/>
<rect x="18" y="15" width="1" height="3" fill="black"/>
<rect x="19" y="18" width="1" height="1" fill="black"/>
<rect x="15" y="14" width="1" height="1" fill="black"/>
<rect x="21" y="14" width="1" height="1" fill="black"/>
<rect x="15" y="20" width="1" height="1" fill="black"/>
<rect x="21" y="20" width="1" height="1" fill="black"/>
</svg>
