<svg width="24" height="24" viewBox="0 0 24 24" fill="none" xmlns="http://www.w3.org/2000/svg">
<rect x="2" y="5" width="13" height="1" fill="currentColor"/>
<rect x="2" y="18" width="13" height="1" fill="currentColor"/>
<rect x="15" y="6" width="1" height="1" fill="currentColor"/>
<rect x="2" y="6" width="1" height="1" fill="currentColor"/>
<rect x="16" y="7" width="1" height="1" fill="currentColor"/>
<rect x="3" y="7" width="1" height="1" fill="currentColor"/>
<rect x="17" y="8" width="1" height="1" fill="currentColor"/>
<rect x="4" y="8" width="1" height="1" fill="currentColor"/>
<rect x="18" y="9" width="1" height="1" fill="currentColor"/>
<rect x="5" y="9" width="1" height="1" fill="currentColor"/>
<rect x="19" y="10" width="1" height="1" fill="currentColor"/>
<rect x="6" y="10" width="1" height="1" fill="currentColor"/>
<rect x="20" y="11" width="1" height="2" fill="currentColor"/>
<rect x="7" y="11" width="1" height="2" fill="currentColor"/>
<rect x="15" y="17" width="1" height="1" fill="currentColor"/>
<rect x="2" y="17" width="1" height="1" fill="currentColor"/>
<rect x="16" y="16" width="1" height="1" fill="currentColor"/>
<rect x="3" y="16" width="1" height="1" fill="currentColor"/>
<rect x="17" y="15" width="1" height="1" fill="currentColor"/>
<rect x="4" y="15" width="1" height="1" fill="currentColor"/>
<rect x="18" y="14" width="1" height="1" fill="currentColor"/>
<rect x="5" y="14" width="1" height="1" fill="currentColor"/>
<rect x="19" y="13" width="1" height="1" fill="currentColor"/>
<rect x="6" y="13" width="1" height="1" fill="currentColor"/>
</svg>
