<svg width="24" height="24" viewBox="0 0 24 24" fill="none" xmlns="http://www.w3.org/2000/svg">
<rect width="8" height="1" transform="matrix(-1 0 0 1 21 4)" fill="currentColor"/>
<rect width="8" height="1" transform="matrix(-1 0 0 1 21 10)" fill="currentColor"/>
<rect width="1" height="5" transform="matrix(-1 0 0 1 21 5)" fill="currentColor"/>
<rect width="1" height="5" transform="matrix(-1 0 0 1 14 5)" fill="currentColor"/>
<rect width="8" height="1" transform="matrix(-1 0 0 1 11 4)" fill="currentColor"/>
<rect width="8" height="1" transform="matrix(-1 0 0 1 11 7)" fill="currentColor"/>
<rect x="3" y="13" width="18" height="1" fill="currentColor"/>
<rect x="3" y="16" width="18" height="1" fill="currentColor"/>
<rect x="3" y="19" width="18" height="1" fill="currentColor"/>
<rect width="8" height="1" transform="matrix(-1 0 0 1 11 10)" fill="currentColor"/>
</svg>
