<svg width="24" height="24" viewBox="0 0 24 24" fill="none" xmlns="http://www.w3.org/2000/svg">
<rect x="3" y="15" width="1" height="6" fill="black"/>
<rect x="20" y="15" width="1" height="6" fill="black"/>
<rect x="4" y="20" width="16" height="1" fill="black"/>
<rect width="2" height="1" transform="matrix(1 0 0 -1 11 4)" fill="black"/>
<rect width="2" height="1" transform="matrix(1 0 0 -1 11 6)" fill="black"/>
<rect width="2" height="1" transform="matrix(1 0 0 -1 11 8)" fill="black"/>
<rect width="2" height="1" transform="matrix(1 0 0 -1 11 10)" fill="black"/>
<rect width="2" height="1" transform="matrix(1 0 0 -1 11 12)" fill="black"/>
<rect width="2" height="1" transform="matrix(1 0 0 -1 11 14)" fill="black"/>
<rect width="2" height="1" transform="matrix(1 0 0 -1 11 16)" fill="black"/>
<rect width="2" height="1" transform="matrix(1 0 0 -1 11 18)" fill="black"/>
<rect width="1" height="1" transform="matrix(1 0 0 -1 10 5)" fill="black"/>
<rect x="14" y="5" width="1" height="1" transform="rotate(-180 14 5)" fill="black"/>
<rect width="1" height="1" transform="matrix(1 0 0 -1 9 6)" fill="black"/>
<rect x="15" y="6" width="1" height="1" transform="rotate(-180 15 6)" fill="black"/>
<rect width="1" height="1" transform="matrix(1 0 0 -1 8 7)" fill="black"/>
<rect x="16" y="7" width="1" height="1" transform="rotate(-180 16 7)" fill="black"/>
<rect width="1" height="1" transform="matrix(1 0 0 -1 7 8)" fill="black"/>
<rect x="17" y="8" width="1" height="1" transform="rotate(-180 17 8)" fill="black"/>
<rect width="1" height="1" transform="matrix(1 0 0 -1 6 9)" fill="black"/>
<rect x="18" y="9" width="1" height="1" transform="rotate(-180 18 9)" fill="black"/>
<rect width="1" height="1" transform="matrix(1 0 0 -1 5 10)" fill="black"/>
<rect x="19" y="10" width="1" height="1" transform="rotate(-180 19 10)" fill="black"/>
</svg>
