<svg width="24" height="24" viewBox="0 0 24 24" fill="none" xmlns="http://www.w3.org/2000/svg">
<rect x="1" y="8" width="1" height="1" fill="currentColor"/>
<rect width="1" height="1" transform="matrix(-1 0 0 1 23 8)" fill="currentColor"/>
<rect x="2" y="9" width="1" height="1" fill="currentColor"/>
<rect width="1" height="1" transform="matrix(-1 0 0 1 22 9)" fill="currentColor"/>
<rect x="3" y="10" width="1" height="1" fill="currentColor"/>
<rect width="1" height="1" transform="matrix(-1 0 0 1 21 10)" fill="currentColor"/>
<rect x="4" y="11" width="2" height="1" fill="currentColor"/>
<rect width="2" height="1" transform="matrix(-1 0 0 1 20 11)" fill="currentColor"/>
<rect x="6" y="12" width="2" height="1" fill="currentColor"/>
<rect width="2" height="1" transform="matrix(-1 0 0 1 18 12)" fill="currentColor"/>
<rect x="8" y="13" width="8" height="1" fill="currentColor"/>
<rect x="2" y="11" width="1" height="1" fill="currentColor"/>
<rect width="1" height="1" transform="matrix(-1 0 0 1 22 11)" fill="currentColor"/>
<rect x="1" y="12" width="1" height="1" fill="currentColor"/>
<rect width="1" height="1" transform="matrix(-1 0 0 1 23 12)" fill="currentColor"/>
<rect x="5" y="13" width="1" height="1" fill="currentColor"/>
<rect width="1" height="1" transform="matrix(-1 0 0 1 19 13)" fill="currentColor"/>
<rect x="4" y="14" width="1" height="1" fill="currentColor"/>
<rect width="1" height="1" transform="matrix(-1 0 0 1 20 14)" fill="currentColor"/>
<rect x="9" y="15" width="1" height="1" fill="currentColor"/>
<rect x="10" y="14" width="1" height="1" fill="currentColor"/>
<rect width="1" height="1" transform="matrix(-1 0 0 1 14 14)" fill="currentColor"/>
<rect width="1" height="1" transform="matrix(-1 0 0 1 15 15)" fill="currentColor"/>
</svg>
