<svg width="24" height="24" viewBox="0 0 24 24" fill="none" xmlns="http://www.w3.org/2000/svg">
<rect x="3" y="11" width="14" height="1" fill="currentColor"/>
<rect x="15" y="10" width="1" height="1" fill="currentColor"/>
<rect width="1" height="1" transform="matrix(1 0 0 -1 15 13)" fill="currentColor"/>
<rect x="14" y="9" width="1" height="1" fill="currentColor"/>
<rect width="1" height="1" transform="matrix(1 0 0 -1 14 14)" fill="currentColor"/>
<rect x="13" y="8" width="1" height="1" fill="currentColor"/>
<rect width="1" height="1" transform="matrix(1 0 0 -1 13 15)" fill="currentColor"/>
<rect x="12" y="7" width="1" height="1" fill="currentColor"/>
<rect width="1" height="1" transform="matrix(1 0 0 -1 12 16)" fill="currentColor"/>
<rect x="3" y="3" width="1" height="6" fill="currentColor"/>
<rect x="3" y="14" width="1" height="7" fill="currentColor"/>
<rect x="4" y="20" width="17" height="1" fill="currentColor"/>
<rect x="4" y="3" width="17" height="1" fill="currentColor"/>
<rect x="20" y="4" width="1" height="16" fill="currentColor"/>
</svg>
