<svg width="24" height="24" viewBox="0 0 24 24" fill="none" xmlns="http://www.w3.org/2000/svg">
<rect x="6" y="2" width="1" height="4" fill="black"/>
<rect width="1" height="5" transform="matrix(1 0 0 -1 6 22)" fill="black"/>
<rect x="7" y="2" width="10" height="1" fill="black"/>
<rect width="10" height="1" transform="matrix(1 0 0 -1 7 22)" fill="black"/>
<rect x="17" y="2" width="1" height="4" fill="black"/>
<rect width="1" height="5" transform="matrix(1 0 0 -1 17 22)" fill="black"/>
<rect x="16" y="10" width="1" height="1" fill="black"/>
<rect width="1" height="1" transform="matrix(-1 0 0 1 8 10)" fill="black"/>
<rect width="1" height="1" transform="matrix(1 0 0 -1 16 13)" fill="black"/>
<rect x="8" y="13" width="1" height="1" transform="rotate(-180 8 13)" fill="black"/>
<rect x="17" y="9" width="1" height="1" fill="black"/>
<rect width="1" height="1" transform="matrix(-1 0 0 1 7 9)" fill="black"/>
<rect width="1" height="1" transform="matrix(1 0 0 -1 17 14)" fill="black"/>
<rect x="7" y="14" width="1" height="1" transform="rotate(-180 7 14)" fill="black"/>
<rect x="18" y="8" width="1" height="1" fill="black"/>
<rect width="1" height="1" transform="matrix(-1 0 0 1 6 8)" fill="black"/>
<rect width="1" height="1" transform="matrix(1 0 0 -1 18 15)" fill="black"/>
<rect x="6" y="15" width="1" height="1" transform="rotate(-180 6 15)" fill="black"/>
<rect x="19" y="7" width="1" height="1" fill="black"/>
<rect width="1" height="1" transform="matrix(-1 0 0 1 5 7)" fill="black"/>
<rect width="1" height="1" transform="matrix(1 0 0 -1 19 16)" fill="black"/>
<rect x="5" y="16" width="1" height="1" transform="rotate(-180 5 16)" fill="black"/>
<rect x="2" y="11" width="7" height="1" fill="black"/>
<rect x="15" y="11" width="7" height="1" fill="black"/>
</svg>
