<svg width="24" height="24" viewBox="0 0 24 24" fill="none" xmlns="http://www.w3.org/2000/svg">
<rect x="9" y="2" width="1" height="4" fill="black"/>
<rect width="1" height="5" transform="matrix(1 0 0 -1 9 22)" fill="black"/>
<rect x="10" y="2" width="4" height="1" fill="black"/>
<rect width="4" height="1" transform="matrix(1 0 0 -1 10 22)" fill="black"/>
<rect x="14" y="2" width="1" height="4" fill="black"/>
<rect width="1" height="5" transform="matrix(1 0 0 -1 14 22)" fill="black"/>
<rect width="1" height="1" transform="matrix(-1 0 0 1 21 10)" fill="black"/>
<rect x="3" y="10" width="1" height="1" fill="black"/>
<rect x="21" y="13" width="1" height="1" transform="rotate(-180 21 13)" fill="black"/>
<rect width="1" height="1" transform="matrix(1 0 0 -1 3 13)" fill="black"/>
<rect width="1" height="1" transform="matrix(-1 0 0 1 20 9)" fill="black"/>
<rect x="4" y="9" width="1" height="1" fill="black"/>
<rect x="20" y="14" width="1" height="1" transform="rotate(-180 20 14)" fill="black"/>
<rect width="1" height="1" transform="matrix(1 0 0 -1 4 14)" fill="black"/>
<rect width="1" height="1" transform="matrix(-1 0 0 1 19 8)" fill="black"/>
<rect x="5" y="8" width="1" height="1" fill="black"/>
<rect x="19" y="15" width="1" height="1" transform="rotate(-180 19 15)" fill="black"/>
<rect width="1" height="1" transform="matrix(1 0 0 -1 5 15)" fill="black"/>
<rect width="1" height="1" transform="matrix(-1 0 0 1 18 7)" fill="black"/>
<rect x="6" y="7" width="1" height="1" fill="black"/>
<rect x="18" y="16" width="1" height="1" transform="rotate(-180 18 16)" fill="black"/>
<rect width="1" height="1" transform="matrix(1 0 0 -1 6 16)" fill="black"/>
<rect width="7" height="1" transform="matrix(-1 0 0 1 9 11)" fill="black"/>
<rect width="7" height="1" transform="matrix(-1 0 0 1 22 11)" fill="black"/>
</svg>
