<svg width="24" height="24" viewBox="0 0 24 24" fill="none" xmlns="http://www.w3.org/2000/svg">
<rect x="6" y="2" width="6" height="1" fill="black"/>
<rect x="5" y="3" width="1" height="1" fill="black"/>
<rect x="4" y="4" width="1" height="6" fill="black"/>
<rect x="5" y="10" width="1" height="1" fill="black"/>
<rect x="6" y="11" width="6" height="1" fill="black"/>
<rect x="12" y="10" width="1" height="1" fill="black"/>
<rect x="13" y="4" width="1" height="6" fill="black"/>
<rect x="12" y="3" width="1" height="1" fill="black"/>
<rect x="5" y="14" width="8" height="1" fill="black"/>
<rect x="3" y="15" width="2" height="1" fill="black"/>
<rect width="2" height="1" transform="matrix(-1 0 0 1 15 15)" fill="black"/>
<rect x="2" y="16" width="1" height="1" fill="black"/>
<rect width="1" height="1" transform="matrix(-1 0 0 1 16 16)" fill="black"/>
<rect x="1" y="17" width="1" height="2" fill="black"/>
<rect width="1" height="2" transform="matrix(-1 0 0 1 17 17)" fill="black"/>
<rect y="19" width="1" height="3" fill="black"/>
<rect width="1" height="3" transform="matrix(-1 0 0 1 18 19)" fill="black"/>
<rect x="16" y="2" width="4" height="1" fill="black"/>
<rect x="16" y="11" width="4" height="1" fill="black"/>
<rect x="20" y="10" width="1" height="1" fill="black"/>
<rect x="21" y="4" width="1" height="6" fill="black"/>
<rect x="20" y="3" width="1" height="1" fill="black"/>
<rect x="17" y="14" width="2" height="1" fill="black"/>
<rect width="2" height="1" transform="matrix(-1 0 0 1 21 15)" fill="black"/>
<rect width="1" height="1" transform="matrix(-1 0 0 1 22 16)" fill="black"/>
<rect width="1" height="2" transform="matrix(-1 0 0 1 23 17)" fill="black"/>
<rect width="1" height="3" transform="matrix(-1 0 0 1 24 19)" fill="black"/>
</svg>
