<svg width="24" height="24" viewBox="0 0 24 24" fill="none" xmlns="http://www.w3.org/2000/svg">
<rect x="2" y="15" width="5" height="1" fill="currentColor"/>
<rect x="7" y="5" width="5" height="1" fill="currentColor"/>
<rect x="12" y="15" width="5" height="1" fill="currentColor"/>
<rect x="17" y="5" width="5" height="1" fill="currentColor"/>
<rect x="2" y="19" width="5" height="1" fill="currentColor"/>
<rect x="7" y="9" width="5" height="1" fill="currentColor"/>
<rect x="12" y="19" width="5" height="1" fill="currentColor"/>
<rect x="17" y="9" width="5" height="1" fill="currentColor"/>
<rect x="2" y="16" width="1" height="3" fill="currentColor"/>
<rect x="7" y="6" width="1" height="3" fill="currentColor"/>
<rect x="12" y="16" width="1" height="3" fill="currentColor"/>
<rect x="17" y="6" width="1" height="3" fill="currentColor"/>
<rect x="6" y="16" width="1" height="3" fill="currentColor"/>
<rect x="11" y="6" width="1" height="3" fill="currentColor"/>
<rect x="16" y="16" width="1" height="3" fill="currentColor"/>
<rect x="21" y="6" width="1" height="3" fill="currentColor"/>
<rect x="2" y="12" width="20" height="1" fill="currentColor"/>
<rect x="4" y="12" width="1" height="2" fill="currentColor"/>
<rect x="9" y="11" width="1" height="2" fill="currentColor"/>
<rect x="19" y="11" width="1" height="2" fill="currentColor"/>
<rect x="14" y="14" width="1" height="2" fill="currentColor"/>
</svg>
