<svg width="24" height="24" viewBox="0 0 24 24" fill="none" xmlns="http://www.w3.org/2000/svg">
<rect x="6" y="12" width="1" height="6" fill="black"/>
<rect x="7" y="17" width="5" height="1" fill="black"/>
<rect x="12" y="16" width="1" height="1" fill="black"/>
<rect x="13" y="15" width="1" height="1" fill="black"/>
<rect x="14" y="14" width="1" height="1" fill="black"/>
<rect x="15" y="13" width="1" height="1" fill="black"/>
<rect x="16" y="12" width="1" height="1" fill="black"/>
<rect x="17" y="11" width="1" height="1" fill="black"/>
<rect x="18" y="10" width="1" height="1" fill="black"/>
<rect x="19" y="9" width="1" height="1" fill="black"/>
<rect x="20" y="8" width="1" height="1" fill="black"/>
<rect x="15" y="3" width="1" height="1" fill="black"/>
<rect x="14" y="4" width="1" height="1" fill="black"/>
<rect x="13" y="5" width="1" height="1" fill="black"/>
<rect x="12" y="6" width="1" height="1" fill="black"/>
<rect x="11" y="7" width="1" height="1" fill="black"/>
<rect x="10" y="8" width="1" height="1" fill="black"/>
<rect x="9" y="9" width="1" height="1" fill="black"/>
<rect x="8" y="10" width="1" height="1" fill="black"/>
<rect x="7" y="11" width="1" height="1" fill="black"/>
<rect x="21" y="7" width="1" height="1" fill="black"/>
<rect x="20" y="6" width="1" height="1" fill="black"/>
<rect x="19" y="5" width="1" height="1" fill="black"/>
<rect x="18" y="4" width="1" height="1" fill="black"/>
<rect x="17" y="3" width="1" height="1" fill="black"/>
<rect x="16" y="2" width="1" height="1" fill="black"/>
<rect x="2" y="4" width="8" height="1" fill="black"/>
<rect x="2" y="5" width="1" height="17" fill="black"/>
<rect x="3" y="21" width="17" height="1" fill="black"/>
<rect x="19" y="14" width="1" height="7" fill="black"/>
<rect x="8" y="12" width="1" height="1" fill="black"/>
<rect x="9" y="13" width="1" height="1" fill="black"/>
<rect x="10" y="14" width="1" height="1" fill="black"/>
<rect x="11" y="15" width="1" height="1" fill="black"/>
</svg>
