<svg width="24" height="24" viewBox="0 0 24 24" fill="none" xmlns="http://www.w3.org/2000/svg">
<rect x="3" y="6" width="18" height="1" fill="currentColor"/>
<rect x="3" y="17" width="18" height="1" fill="currentColor"/>
<rect x="3" y="7" width="1" height="10" fill="currentColor"/>
<rect x="20" y="7" width="1" height="10" fill="currentColor"/>
<rect x="8" y="2" width="1" height="4" fill="currentColor"/>
<rect width="1" height="4" transform="matrix(1 0 0 -1 8 22)" fill="currentColor"/>
<rect x="15" y="2" width="1" height="4" fill="currentColor"/>
<rect width="1" height="4" transform="matrix(1 0 0 -1 15 22)" fill="currentColor"/>
<rect x="9" y="2" width="6" height="1" fill="currentColor"/>
<rect width="6" height="1" transform="matrix(1 0 0 -1 9 22)" fill="currentColor"/>
<rect x="12" y="9" width="1" height="4" fill="currentColor"/>
<rect x="13" y="13" width="1" height="1" fill="currentColor"/>
<rect x="14" y="14" width="1" height="1" fill="currentColor"/>
</svg>
