<svg width="24" height="24" viewBox="0 0 24 24" fill="none" xmlns="http://www.w3.org/2000/svg">
<rect x="3" y="3" width="4" height="1" fill="black"/>
<rect x="3" y="17" width="4" height="1" fill="black"/>
<rect x="17" y="3" width="4" height="1" fill="black"/>
<rect x="17" y="17" width="4" height="1" fill="black"/>
<rect x="3" y="6" width="4" height="1" fill="black"/>
<rect x="3" y="20" width="4" height="1" fill="black"/>
<rect x="17" y="6" width="4" height="1" fill="black"/>
<rect x="17" y="20" width="4" height="1" fill="black"/>
<rect x="3" y="4" width="1" height="2" fill="black"/>
<rect x="3" y="18" width="1" height="2" fill="black"/>
<rect x="17" y="4" width="1" height="2" fill="black"/>
<rect x="17" y="18" width="1" height="2" fill="black"/>
<rect x="6" y="4" width="1" height="2" fill="black"/>
<rect x="6" y="18" width="1" height="2" fill="black"/>
<rect x="20" y="4" width="1" height="2" fill="black"/>
<rect x="20" y="18" width="1" height="2" fill="black"/>
<rect x="8" y="15" width="1" height="1" fill="black"/>
<rect width="1" height="1" transform="matrix(-1 0 0 1 16 15)" fill="black"/>
<rect x="9" y="14" width="1" height="1" fill="black"/>
<rect width="1" height="1" transform="matrix(-1 0 0 1 15 14)" fill="black"/>
<rect x="10" y="13" width="1" height="1" fill="black"/>
<rect width="1" height="1" transform="matrix(-1 0 0 1 14 13)" fill="black"/>
<rect x="11" y="12" width="1" height="1" fill="black"/>
<rect width="1" height="1" transform="matrix(-1 0 0 1 13 12)" fill="black"/>
<rect x="12" y="11" width="1" height="1" fill="black"/>
<rect width="1" height="1" transform="matrix(-1 0 0 1 12 11)" fill="black"/>
<rect x="13" y="10" width="1" height="1" fill="black"/>
<rect width="1" height="1" transform="matrix(-1 0 0 1 11 10)" fill="black"/>
<rect x="14" y="9" width="1" height="1" fill="black"/>
<rect width="1" height="1" transform="matrix(-1 0 0 1 10 9)" fill="black"/>
<rect x="15" y="8" width="1" height="1" fill="black"/>
<rect width="1" height="1" transform="matrix(-1 0 0 1 9 8)" fill="black"/>
</svg>
