<svg width="24" height="24" viewBox="0 0 24 24" fill="none" xmlns="http://www.w3.org/2000/svg">
<rect x="3" y="11" width="18" height="1" fill="currentColor"/>
<rect x="11" y="8" width="10" height="1" fill="currentColor"/>
<rect x="11" y="14" width="10" height="1" fill="currentColor"/>
<rect x="4" y="10" width="1" height="1" fill="currentColor"/>
<rect width="1" height="1" transform="matrix(1 0 0 -1 4 13)" fill="currentColor"/>
<rect x="5" y="9" width="1" height="1" fill="currentColor"/>
<rect width="1" height="1" transform="matrix(1 0 0 -1 5 14)" fill="currentColor"/>
<rect x="6" y="8" width="1" height="1" fill="currentColor"/>
<rect width="1" height="1" transform="matrix(1 0 0 -1 6 15)" fill="currentColor"/>
<rect x="7" y="7" width="1" height="1" fill="currentColor"/>
<rect width="1" height="1" transform="matrix(1 0 0 -1 7 16)" fill="currentColor"/>
<rect x="8" y="6" width="1" height="1" fill="currentColor"/>
<rect width="1" height="1" transform="matrix(1 0 0 -1 8 17)" fill="currentColor"/>
</svg>
