<svg width="24" height="24" viewBox="0 0 24 24" fill="none" xmlns="http://www.w3.org/2000/svg">
<rect x="20" y="3" width="1" height="18" fill="currentColor"/>
<rect x="3" y="20" width="17" height="1" fill="currentColor"/>
<rect x="3" y="3" width="1" height="18" fill="currentColor"/>
<rect x="3" y="3" width="17" height="1" fill="currentColor"/>
<rect width="1" height="1" transform="matrix(-4.37114e-08 -1 -1 4.37114e-08 8 14)" fill="currentColor"/>
<rect width="1" height="1" transform="matrix(-1 8.74228e-08 8.74228e-08 1 15 15)" fill="currentColor"/>
<rect width="1" height="1" transform="matrix(-1 8.74228e-08 8.74228e-08 1 16 14)" fill="currentColor"/>
<rect width="1" height="1" transform="matrix(-1 8.74228e-08 8.74228e-08 1 17 13)" fill="currentColor"/>
<rect width="1" height="1" transform="matrix(-1 8.74228e-08 8.74228e-08 1 14 16)" fill="currentColor"/>
<rect x="12" y="17" width="1" height="1" fill="currentColor"/>
<rect x="10" y="16" width="1" height="1" fill="currentColor"/>
<rect x="11" y="17" width="1" height="1" fill="currentColor"/>
<rect x="9" y="15" width="1" height="1" fill="currentColor"/>
<rect x="8" y="14" width="1" height="1" fill="currentColor"/>
<rect width="2" height="1" transform="matrix(-1 8.74228e-08 8.74228e-08 1 13 8)" fill="currentColor"/>
<rect width="2" height="1" transform="matrix(-1 8.74228e-08 8.74228e-08 1 13 14)" fill="currentColor"/>
<rect width="2" height="1" transform="matrix(-1 8.74228e-08 8.74228e-08 1 13 6)" fill="currentColor"/>
<rect width="2" height="1" transform="matrix(-1 8.74228e-08 8.74228e-08 1 13 12)" fill="currentColor"/>
<rect width="2" height="1" transform="matrix(-1 8.74228e-08 8.74228e-08 1 13 10)" fill="currentColor"/>
</svg>
