<svg width="24" height="24" viewBox="0 0 24 24" fill="none" xmlns="http://www.w3.org/2000/svg">
<rect x="2" y="13" width="1" height="6" fill="currentColor"/>
<rect x="21" y="13" width="1" height="6" fill="currentColor"/>
<rect x="8" y="13" width="1" height="2" fill="currentColor"/>
<rect x="15" y="13" width="1" height="2" fill="currentColor"/>
<rect width="1" height="1" transform="matrix(-1 0 0 1 21 12)" fill="currentColor"/>
<rect x="3" y="12" width="1" height="1" fill="currentColor"/>
<rect width="1" height="1" transform="matrix(-1 0 0 1 20 11)" fill="currentColor"/>
<rect x="4" y="11" width="1" height="1" fill="currentColor"/>
<rect width="1" height="1" transform="matrix(-1 0 0 1 19 10)" fill="currentColor"/>
<rect x="5" y="10" width="1" height="1" fill="currentColor"/>
<rect width="1" height="1" transform="matrix(-1 0 0 1 18 9)" fill="currentColor"/>
<rect x="6" y="9" width="1" height="1" fill="currentColor"/>
<rect width="1" height="1" transform="matrix(-1 0 0 1 17 8)" fill="currentColor"/>
<rect x="7" y="8" width="1" height="1" fill="currentColor"/>
<rect width="1" height="1" transform="matrix(-1 0 0 1 19 8)" fill="currentColor"/>
<rect x="5" y="8" width="1" height="1" fill="currentColor"/>
<rect width="1" height="1" transform="matrix(-1 0 0 1 21 6)" fill="currentColor"/>
<rect x="3" y="6" width="1" height="1" fill="currentColor"/>
<rect width="1" height="1" transform="matrix(-1 0 0 1 20 7)" fill="currentColor"/>
<rect x="4" y="7" width="1" height="1" fill="currentColor"/>
<rect width="1" height="1" transform="matrix(-1 0 0 1 22 5)" fill="currentColor"/>
<rect x="2" y="5" width="1" height="1" fill="currentColor"/>
<rect x="8" y="7" width="8" height="1" fill="currentColor"/>
<rect x="2" y="18" width="20" height="1" fill="currentColor"/>
</svg>
