<svg width="24" height="24" viewBox="0 0 24 24" fill="none" xmlns="http://www.w3.org/2000/svg">
<rect x="8" y="16" width="1" height="1" fill="black"/>
<rect x="9" y="17" width="1" height="1" fill="black"/>
<rect x="7" y="9" width="1" height="1" transform="rotate(90 7 9)" fill="black"/>
<rect x="8" y="8" width="1" height="1" transform="rotate(90 8 8)" fill="black"/>
<rect x="9" y="7" width="1" height="1" transform="rotate(90 9 7)" fill="black"/>
<rect x="10" y="6" width="1" height="1" transform="rotate(90 10 6)" fill="black"/>
<rect x="6" y="10" width="1" height="1" transform="rotate(90 6 10)" fill="black"/>
<rect width="1" height="1" transform="matrix(4.37114e-08 -1 -1 -4.37114e-08 5 12)" fill="black"/>
<rect width="1" height="1" transform="matrix(4.37114e-08 -1 -1 -4.37114e-08 6 14)" fill="black"/>
<rect width="1" height="1" transform="matrix(4.37114e-08 -1 -1 -4.37114e-08 5 13)" fill="black"/>
<rect width="1" height="1" transform="matrix(4.37114e-08 -1 -1 -4.37114e-08 7 15)" fill="black"/>
<rect width="1" height="1" transform="matrix(4.37114e-08 -1 -1 -4.37114e-08 8 16)" fill="black"/>
<rect x="14" y="11" width="2" height="1" transform="rotate(90 14 11)" fill="black"/>
<rect x="8" y="11" width="2" height="1" transform="rotate(90 8 11)" fill="black"/>
<rect x="16" y="11" width="2" height="1" transform="rotate(90 16 11)" fill="black"/>
<rect x="10" y="11" width="2" height="1" transform="rotate(90 10 11)" fill="black"/>
<rect x="18" y="11" width="2" height="1" transform="rotate(90 18 11)" fill="black"/>
<rect x="20" y="11" width="2" height="1" transform="rotate(90 20 11)" fill="black"/>
<rect x="12" y="11" width="2" height="1" transform="rotate(90 12 11)" fill="black"/>
</svg>
