<svg width="24" height="24" viewBox="0 0 24 24" fill="none" xmlns="http://www.w3.org/2000/svg">
<rect x="2" y="5" width="14" height="1" fill="black"/>
<rect x="2" y="18" width="14" height="1" fill="black"/>
<rect x="2" y="6" width="1" height="12" fill="black"/>
<rect x="15" y="6" width="1" height="12" fill="black"/>
<rect x="16" y="9" width="1" height="1" fill="black"/>
<rect x="17" y="8" width="1" height="1" fill="black"/>
<rect x="18" y="7" width="1" height="1" fill="black"/>
<rect x="19" y="6" width="1" height="1" fill="black"/>
<rect x="20" y="5" width="2" height="1" fill="black"/>
<rect x="21" y="6" width="1" height="12" fill="black"/>
<rect x="20" y="18" width="2" height="1" fill="black"/>
<rect x="19" y="17" width="1" height="1" fill="black"/>
<rect x="18" y="16" width="1" height="1" fill="black"/>
<rect x="17" y="15" width="1" height="1" fill="black"/>
<rect x="16" y="14" width="1" height="1" fill="black"/>
<rect x="9" y="11" width="1" height="1" fill="black"/>
<rect width="1" height="1" transform="matrix(-1 0 0 1 9 11)" fill="black"/>
<rect width="1" height="1" transform="matrix(-1 0 0 1 12 14)" fill="black"/>
<rect x="7" y="13" width="1" height="1" fill="black"/>
<rect x="10" y="10" width="1" height="1" fill="black"/>
<rect x="11" y="9" width="1" height="1" fill="black"/>
<rect width="1" height="1" transform="matrix(-1 0 0 1 8 10)" fill="black"/>
<rect width="1" height="1" transform="matrix(-1 0 0 1 11 13)" fill="black"/>
<rect width="1" height="1" transform="matrix(-1 0 0 1 7 9)" fill="black"/>
<rect width="1" height="1" transform="matrix(-1 0 0 1 10 12)" fill="black"/>
<rect width="1" height="1" transform="matrix(-1 0 0 1 7 14)" fill="black"/>
<rect x="8" y="12" width="1" height="1" fill="black"/>
</svg>
