<svg width="24" height="24" viewBox="0 0 24 24" fill="none" xmlns="http://www.w3.org/2000/svg">
<rect x="5" y="4" width="6" height="1" fill="black"/>
<rect x="13" y="4" width="6" height="1" fill="black"/>
<rect x="5" y="19" width="6" height="1" fill="black"/>
<rect x="13" y="19" width="6" height="1" fill="black"/>
<rect x="3" y="5" width="2" height="1" fill="black"/>
<rect width="2" height="1" transform="matrix(-1 0 0 1 21 5)" fill="black"/>
<rect width="2" height="1" transform="matrix(1 0 0 -1 3 19)" fill="black"/>
<rect x="21" y="19" width="2" height="1" transform="rotate(-180 21 19)" fill="black"/>
<rect x="2" y="6" width="1" height="1" fill="black"/>
<rect width="1" height="1" transform="matrix(-1 0 0 1 22 6)" fill="black"/>
<rect width="1" height="1" transform="matrix(1 0 0 -1 2 18)" fill="black"/>
<rect x="22" y="18" width="1" height="1" transform="rotate(-180 22 18)" fill="black"/>
<rect x="1" y="7" width="1" height="2" fill="black"/>
<rect width="1" height="2" transform="matrix(-1 0 0 1 23 7)" fill="black"/>
<rect width="1" height="2" transform="matrix(1 0 0 -1 1 17)" fill="black"/>
<rect x="23" y="17" width="1" height="2" transform="rotate(-180 23 17)" fill="black"/>
<rect y="9" width="1" height="6" fill="black"/>
<rect width="1" height="6" transform="matrix(-1 0 0 1 24 9)" fill="black"/>
<rect x="5" y="10" width="14" height="1" fill="black"/>
<rect x="5" y="13" width="14" height="1" fill="black"/>
</svg>
