<svg width="24" height="24" viewBox="0 0 24 24" fill="none" xmlns="http://www.w3.org/2000/svg">
<rect x="12" y="2" width="6" height="1" fill="currentColor"/>
<rect x="11" y="3" width="1" height="1" fill="currentColor"/>
<rect x="10" y="4" width="1" height="6" fill="currentColor"/>
<rect x="11" y="10" width="1" height="1" fill="currentColor"/>
<rect x="12" y="11" width="6" height="1" fill="currentColor"/>
<rect x="18" y="10" width="1" height="1" fill="currentColor"/>
<rect x="19" y="4" width="1" height="6" fill="currentColor"/>
<rect x="18" y="3" width="1" height="1" fill="currentColor"/>
<rect x="11" y="14" width="8" height="1" fill="currentColor"/>
<rect x="9" y="15" width="2" height="1" fill="currentColor"/>
<rect width="2" height="1" transform="matrix(-1 0 0 1 21 15)" fill="currentColor"/>
<rect x="8" y="16" width="1" height="1" fill="currentColor"/>
<rect width="1" height="1" transform="matrix(-1 0 0 1 22 16)" fill="currentColor"/>
<rect x="7" y="17" width="1" height="2" fill="currentColor"/>
<rect width="1" height="2" transform="matrix(-1 0 0 1 23 17)" fill="currentColor"/>
<rect x="6" y="19" width="1" height="3" fill="currentColor"/>
<rect width="1" height="3" transform="matrix(-1 0 0 1 24 19)" fill="currentColor"/>
<rect x="5" y="9" width="1" height="1" fill="currentColor"/>
<rect width="1" height="1" transform="matrix(-1 0 0 1 4 9)" fill="currentColor"/>
<rect width="1" height="1" transform="matrix(-1 0 0 1 6 11)" fill="currentColor"/>
<rect width="1" height="1" transform="matrix(-1 0 0 1 7 12)" fill="currentColor"/>
<rect width="1" height="1" transform="matrix(-1 0 0 1 8 13)" fill="currentColor"/>
<rect x="2" y="12" width="1" height="1" fill="currentColor"/>
<rect x="6" y="8" width="1" height="1" fill="currentColor"/>
<rect x="7" y="7" width="1" height="1" fill="currentColor"/>
<rect width="1" height="1" transform="matrix(-1 0 0 1 3 8)" fill="currentColor"/>
<rect width="1" height="1" transform="matrix(-1 0 0 1 2 7)" fill="currentColor"/>
<rect width="1" height="1" transform="matrix(-1 0 0 1 2 13)" fill="currentColor"/>
<rect width="1" height="1" transform="matrix(-1 0 0 1 5 10)" fill="currentColor"/>
<rect x="3" y="11" width="1" height="1" fill="currentColor"/>
</svg>
