<svg width="24" height="24" viewBox="0 0 24 24" fill="none" xmlns="http://www.w3.org/2000/svg">
<rect x="2" y="4" width="1" height="16" fill="black"/>
<rect x="3" y="4" width="7" height="1" fill="black"/>
<rect x="10" y="5" width="1" height="1" fill="black"/>
<rect x="11" y="6" width="1" height="1" fill="black"/>
<rect x="12" y="7" width="10" height="1" fill="black"/>
<rect x="21" y="8" width="1" height="12" fill="black"/>
<rect x="3" y="19" width="18" height="1" fill="black"/>
<rect x="17" y="12" width="1" height="1" fill="black"/>
<rect width="1" height="1" transform="matrix(-1 0 0 1 16 12)" fill="black"/>
<rect width="1" height="1" transform="matrix(-1 0 0 1 18 14)" fill="black"/>
<rect width="1" height="1" transform="matrix(-1 0 0 1 19 15)" fill="black"/>
<rect x="14" y="15" width="1" height="1" fill="black"/>
<rect x="18" y="11" width="1" height="1" fill="black"/>
<rect width="1" height="1" transform="matrix(-1 0 0 1 15 11)" fill="black"/>
<rect width="1" height="1" transform="matrix(-1 0 0 1 17 13)" fill="black"/>
<rect x="15" y="14" width="1" height="1" fill="black"/>
</svg>
