<svg width="24" height="24" viewBox="0 0 24 24" fill="none" xmlns="http://www.w3.org/2000/svg">
<rect x="4" y="2" width="1" height="4" fill="black"/>
<rect x="7" y="2" width="1" height="4" fill="black"/>
<rect x="5" y="2" width="2" height="1" fill="black"/>
<rect x="5" y="5" width="2" height="1" fill="black"/>
<rect x="2" y="7" width="8" height="1" fill="black"/>
<rect x="3" y="8" width="1" height="14" fill="black"/>
<rect x="8" y="8" width="1" height="14" fill="black"/>
<rect x="4" y="15" width="4" height="1" fill="black"/>
<rect x="1" y="8" width="1" height="6" fill="black"/>
<rect x="10" y="8" width="1" height="6" fill="black"/>
<rect x="18" y="2" width="1" height="20" fill="black"/>
<rect x="17" y="3" width="1" height="1" fill="black"/>
<rect width="1" height="1" transform="matrix(1 0 0 -1 17 21)" fill="black"/>
<rect width="1" height="1" transform="matrix(-1 0 0 1 20 3)" fill="black"/>
<rect x="20" y="21" width="1" height="1" transform="rotate(-180 20 21)" fill="black"/>
<rect x="16" y="4" width="1" height="1" fill="black"/>
<rect width="1" height="1" transform="matrix(1 0 0 -1 16 20)" fill="black"/>
<rect width="1" height="1" transform="matrix(-1 0 0 1 21 4)" fill="black"/>
<rect x="21" y="20" width="1" height="1" transform="rotate(-180 21 20)" fill="black"/>
<rect x="15" y="5" width="1" height="1" fill="black"/>
<rect width="1" height="1" transform="matrix(1 0 0 -1 15 19)" fill="black"/>
<rect width="1" height="1" transform="matrix(-1 0 0 1 22 5)" fill="black"/>
<rect x="22" y="19" width="1" height="1" transform="rotate(-180 22 19)" fill="black"/>
<rect x="14" y="6" width="1" height="1" fill="black"/>
<rect width="1" height="1" transform="matrix(1 0 0 -1 14 18)" fill="black"/>
<rect width="1" height="1" transform="matrix(-1 0 0 1 23 6)" fill="black"/>
<rect x="23" y="18" width="1" height="1" transform="rotate(-180 23 18)" fill="black"/>
</svg>
