<svg width="24" height="24" viewBox="0 0 24 24" fill="none" xmlns="http://www.w3.org/2000/svg">
<rect x="11" y="15" width="2" height="1" fill="black"/>
<rect x="11" y="13" width="2" height="1" fill="black"/>
<rect x="11" y="11" width="2" height="1" fill="black"/>
<rect x="11" y="9" width="2" height="1" fill="black"/>
<rect x="11" y="7" width="2" height="1" fill="black"/>
<rect x="11" y="5" width="2" height="1" fill="black"/>
<rect x="11" y="3" width="2" height="1" fill="black"/>
<rect x="13" y="14" width="1" height="1" fill="black"/>
<rect width="1" height="1" transform="matrix(-1 0 0 1 11 14)" fill="black"/>
<rect x="14" y="13" width="1" height="1" fill="black"/>
<rect width="1" height="1" transform="matrix(-1 0 0 1 10 13)" fill="black"/>
<rect x="15" y="12" width="1" height="1" fill="black"/>
<rect width="1" height="1" transform="matrix(-1 0 0 1 9 12)" fill="black"/>
<rect x="16" y="11" width="1" height="1" fill="black"/>
<rect width="1" height="1" transform="matrix(-1 0 0 1 8 11)" fill="black"/>
<rect x="17" y="10" width="1" height="1" fill="black"/>
<rect width="1" height="1" transform="matrix(-1 0 0 1 7 10)" fill="black"/>
<rect x="4" y="18" width="16" height="1" fill="black"/>
<rect x="8" y="20" width="8" height="1" fill="black"/>
</svg>
