<svg width="24" height="24" viewBox="0 0 24 24" fill="none" xmlns="http://www.w3.org/2000/svg">
<rect x="2" y="4" width="20" height="1" fill="black"/>
<rect x="2" y="19" width="10" height="1" fill="black"/>
<rect x="2" y="5" width="1" height="14" fill="black"/>
<rect x="21" y="5" width="1" height="9" fill="black"/>
<rect x="4" y="6" width="1" height="1" fill="black"/>
<rect width="1" height="1" transform="matrix(-1 0 0 1 20 6)" fill="black"/>
<rect x="5" y="7" width="1" height="1" fill="black"/>
<rect width="1" height="1" transform="matrix(-1 0 0 1 19 7)" fill="black"/>
<rect x="6" y="8" width="1" height="1" fill="black"/>
<rect width="1" height="1" transform="matrix(-1 0 0 1 18 8)" fill="black"/>
<rect x="7" y="9" width="1" height="1" fill="black"/>
<rect width="1" height="1" transform="matrix(-1 0 0 1 17 9)" fill="black"/>
<rect x="8" y="10" width="1" height="1" fill="black"/>
<rect width="1" height="1" transform="matrix(-1 0 0 1 16 10)" fill="black"/>
<rect x="9" y="11" width="1" height="1" fill="black"/>
<rect width="1" height="1" transform="matrix(-1 0 0 1 15 11)" fill="black"/>
<rect x="10" y="12" width="1" height="1" fill="black"/>
<rect width="1" height="1" transform="matrix(-1 0 0 1 14 12)" fill="black"/>
<rect x="11" y="13" width="2" height="1" fill="black"/>
<rect x="14" y="19" width="10" height="1" fill="black"/>
<rect x="22" y="18" width="1" height="1" fill="black"/>
<rect width="1" height="1" transform="matrix(1 0 0 -1 22 21)" fill="black"/>
<rect x="21" y="17" width="1" height="1" fill="black"/>
<rect width="1" height="1" transform="matrix(1 0 0 -1 21 22)" fill="black"/>
<rect x="20" y="16" width="1" height="1" fill="black"/>
<rect width="1" height="1" transform="matrix(1 0 0 -1 20 23)" fill="black"/>
<rect x="19" y="15" width="1" height="1" fill="black"/>
<rect width="1" height="1" transform="matrix(1 0 0 -1 19 24)" fill="black"/>
</svg>
