<svg width="24" height="24" viewBox="0 0 24 24" fill="none" xmlns="http://www.w3.org/2000/svg">
<rect x="16" y="4" width="1" height="1" fill="currentColor"/>
<rect x="19" y="4" width="1" height="1" fill="currentColor"/>
<rect x="19" y="19" width="1" height="1" fill="currentColor"/>
<rect x="13" y="4" width="1" height="1" fill="currentColor"/>
<rect x="10" y="4" width="1" height="1" fill="currentColor"/>
<rect x="10" y="19" width="1" height="1" fill="currentColor"/>
<rect x="7" y="4" width="1" height="1" fill="currentColor"/>
<rect x="7" y="19" width="1" height="1" fill="currentColor"/>
<rect x="4" y="4" width="1" height="1" fill="currentColor"/>
<rect x="4" y="7" width="1" height="1" fill="currentColor"/>
<rect x="19" y="7" width="1" height="1" fill="currentColor"/>
<rect x="4" y="10" width="1" height="1" fill="currentColor"/>
<rect x="19" y="10" width="1" height="1" fill="currentColor"/>
<rect x="4" y="13" width="1" height="1" fill="currentColor"/>
<rect x="4" y="16" width="1" height="1" fill="currentColor"/>
<rect x="4" y="19" width="1" height="1" fill="currentColor"/>
<rect x="13" y="13" width="6" height="1" fill="currentColor"/>
<rect x="13" y="14" width="1" height="5" fill="currentColor"/>
<rect x="14" y="14" width="1" height="1" fill="currentColor"/>
<rect x="15" y="15" width="1" height="1" fill="currentColor"/>
<rect x="16" y="16" width="1" height="1" fill="currentColor"/>
<rect x="17" y="17" width="1" height="1" fill="currentColor"/>
<rect x="18" y="18" width="1" height="1" fill="currentColor"/>
</svg>
