<svg width="24" height="24" viewBox="0 0 24 24" fill="none" xmlns="http://www.w3.org/2000/svg">
<rect x="4" y="19" width="16" height="1" fill="black"/>
<rect x="16" y="14" width="1" height="1" transform="rotate(-90 16 14)" fill="black"/>
<rect x="17" y="13" width="1" height="1" transform="rotate(-90 17 13)" fill="black"/>
<rect x="9" y="15" width="1" height="1" fill="black"/>
<rect x="8" y="14" width="1" height="1" fill="black"/>
<rect x="7" y="13" width="1" height="1" fill="black"/>
<rect x="6" y="12" width="1" height="1" fill="black"/>
<rect x="10" y="16" width="1" height="1" fill="black"/>
<rect width="1" height="1" transform="matrix(-1 0 0 1 12 17)" fill="black"/>
<rect width="1" height="1" transform="matrix(-1 0 0 1 14 16)" fill="black"/>
<rect width="1" height="1" transform="matrix(-1 0 0 1 13 17)" fill="black"/>
<rect width="1" height="1" transform="matrix(-1 0 0 1 15 15)" fill="black"/>
<rect width="1" height="1" transform="matrix(-1 0 0 1 16 14)" fill="black"/>
<rect x="11" y="8" width="2" height="1" fill="black"/>
<rect x="11" y="14" width="2" height="1" fill="black"/>
<rect x="11" y="6" width="2" height="1" fill="black"/>
<rect x="11" y="12" width="2" height="1" fill="black"/>
<rect x="11" y="4" width="2" height="1" fill="black"/>
<rect x="11" y="10" width="2" height="1" fill="black"/>
</svg>
