<svg width="24" height="24" viewBox="0 0 24 24" fill="none" xmlns="http://www.w3.org/2000/svg">
<rect x="17" y="3" width="1" height="1" fill="black"/>
<rect x="17" y="5" width="1" height="1" fill="black"/>
<rect x="5" y="17" width="1" height="1" fill="black"/>
<rect x="13" y="3" width="1" height="1" fill="black"/>
<rect x="15" y="3" width="1" height="1" fill="black"/>
<rect x="11" y="3" width="1" height="1" fill="black"/>
<rect x="9" y="3" width="1" height="1" fill="black"/>
<rect x="7" y="3" width="1" height="1" fill="black"/>
<rect x="5" y="3" width="1" height="1" fill="black"/>
<rect x="3" y="3" width="1" height="1" fill="black"/>
<rect x="3" y="5" width="1" height="1" fill="black"/>
<rect x="3" y="7" width="1" height="1" fill="black"/>
<rect x="3" y="9" width="1" height="1" fill="black"/>
<rect x="3" y="11" width="1" height="1" fill="black"/>
<rect x="3" y="13" width="1" height="1" fill="black"/>
<rect x="3" y="15" width="1" height="1" fill="black"/>
<rect x="3" y="17" width="1" height="1" fill="black"/>
<rect x="14" y="14" width="6" height="1" fill="black"/>
<rect x="14" y="15" width="1" height="5" fill="black"/>
<rect x="15" y="15" width="1" height="1" fill="black"/>
<rect x="16" y="16" width="1" height="1" fill="black"/>
<rect x="17" y="17" width="1" height="1" fill="black"/>
<rect x="18" y="18" width="1" height="1" fill="black"/>
<rect x="19" y="19" width="1" height="1" fill="black"/>
<rect x="20" y="20" width="1" height="1" fill="black"/>
<rect x="7" y="7" width="14" height="1" fill="black"/>
<rect x="7" y="8" width="1" height="13" fill="black"/>
<rect x="8" y="20" width="4" height="1" fill="black"/>
<rect x="20" y="8" width="1" height="4" fill="black"/>
</svg>
