<svg width="24" height="24" viewBox="0 0 24 24" fill="none" xmlns="http://www.w3.org/2000/svg">
<rect x="21" y="20" width="1" height="18" transform="rotate(90 21 20)" fill="black"/>
<rect x="4" y="3" width="17" height="1" transform="rotate(90 4 3)" fill="black"/>
<rect x="21" y="3" width="1" height="18" transform="rotate(90 21 3)" fill="black"/>
<rect x="21" y="3" width="17" height="1" transform="rotate(90 21 3)" fill="black"/>
<rect width="1" height="1" transform="matrix(1 0 0 -1 10 8)" fill="black"/>
<rect width="1" height="1" transform="matrix(-4.37114e-08 -1 -1 4.37114e-08 9 15)" fill="black"/>
<rect width="1" height="1" transform="matrix(-4.37114e-08 -1 -1 4.37114e-08 10 16)" fill="black"/>
<rect width="1" height="1" transform="matrix(-4.37114e-08 -1 -1 4.37114e-08 11 17)" fill="black"/>
<rect width="1" height="1" transform="matrix(-4.37114e-08 -1 -1 4.37114e-08 8 14)" fill="black"/>
<rect x="7" y="12" width="1" height="1" transform="rotate(90 7 12)" fill="black"/>
<rect x="8" y="10" width="1" height="1" transform="rotate(90 8 10)" fill="black"/>
<rect x="7" y="11" width="1" height="1" transform="rotate(90 7 11)" fill="black"/>
<rect x="9" y="9" width="1" height="1" transform="rotate(90 9 9)" fill="black"/>
<rect x="10" y="8" width="1" height="1" transform="rotate(90 10 8)" fill="black"/>
<rect width="2" height="1" transform="matrix(-4.37114e-08 -1 -1 4.37114e-08 16 13)" fill="black"/>
<rect width="2" height="1" transform="matrix(-4.37114e-08 -1 -1 4.37114e-08 10 13)" fill="black"/>
<rect width="2" height="1" transform="matrix(-4.37114e-08 -1 -1 4.37114e-08 18 13)" fill="black"/>
<rect width="2" height="1" transform="matrix(-4.37114e-08 -1 -1 4.37114e-08 12 13)" fill="black"/>
<rect width="2" height="1" transform="matrix(-4.37114e-08 -1 -1 4.37114e-08 14 13)" fill="black"/>
</svg>
