<svg width="24" height="24" viewBox="0 0 24 24" fill="none" xmlns="http://www.w3.org/2000/svg">
<rect x="9" y="2" width="6" height="1" fill="currentColor"/>
<rect x="8" y="3" width="1" height="1" fill="currentColor"/>
<rect x="7" y="4" width="1" height="6" fill="currentColor"/>
<rect x="8" y="10" width="1" height="1" fill="currentColor"/>
<rect x="9" y="11" width="6" height="1" fill="currentColor"/>
<rect x="15" y="10" width="1" height="1" fill="currentColor"/>
<rect x="16" y="4" width="1" height="6" fill="currentColor"/>
<rect x="15" y="3" width="1" height="1" fill="currentColor"/>
<rect x="8" y="14" width="8" height="1" fill="currentColor"/>
<rect x="6" y="15" width="2" height="1" fill="currentColor"/>
<rect width="2" height="1" transform="matrix(-1 0 0 1 18 15)" fill="currentColor"/>
<rect x="5" y="16" width="1" height="1" fill="currentColor"/>
<rect width="1" height="1" transform="matrix(-1 0 0 1 19 16)" fill="currentColor"/>
<rect x="4" y="17" width="1" height="2" fill="currentColor"/>
<rect width="1" height="2" transform="matrix(-1 0 0 1 20 17)" fill="currentColor"/>
<rect x="3" y="19" width="1" height="3" fill="currentColor"/>
<rect width="1" height="3" transform="matrix(-1 0 0 1 21 19)" fill="currentColor"/>
</svg>
