<svg width="24" height="24" viewBox="0 0 24 24" fill="none" xmlns="http://www.w3.org/2000/svg">
<rect x="2" y="2" width="9" height="1" fill="currentColor"/>
<rect x="11" y="3" width="1" height="1" fill="currentColor"/>
<rect x="3" y="11" width="1" height="1" fill="currentColor"/>
<rect x="12" y="4" width="1" height="1" fill="currentColor"/>
<rect x="4" y="12" width="1" height="1" fill="currentColor"/>
<rect x="13" y="5" width="1" height="1" fill="currentColor"/>
<rect x="5" y="13" width="1" height="1" fill="currentColor"/>
<rect x="14" y="6" width="1" height="1" fill="currentColor"/>
<rect x="6" y="14" width="1" height="1" fill="currentColor"/>
<rect x="15" y="7" width="1" height="1" fill="currentColor"/>
<rect x="7" y="15" width="1" height="1" fill="currentColor"/>
<rect x="16" y="8" width="1" height="1" fill="currentColor"/>
<rect x="8" y="16" width="1" height="1" fill="currentColor"/>
<rect x="17" y="9" width="1" height="1" fill="currentColor"/>
<rect x="9" y="17" width="1" height="1" fill="currentColor"/>
<rect x="18" y="10" width="1" height="1" fill="currentColor"/>
<rect x="10" y="18" width="1" height="1" fill="currentColor"/>
<rect x="19" y="11" width="1" height="1" fill="currentColor"/>
<rect x="11" y="19" width="1" height="1" fill="currentColor"/>
<rect x="20" y="12" width="1" height="1" fill="currentColor"/>
<rect x="12" y="20" width="1" height="1" fill="currentColor"/>
<rect x="21" y="13" width="1" height="1" fill="currentColor"/>
<rect x="20" y="14" width="1" height="1" fill="currentColor"/>
<rect x="19" y="15" width="1" height="1" fill="currentColor"/>
<rect x="18" y="16" width="1" height="1" fill="currentColor"/>
<rect x="17" y="17" width="1" height="1" fill="currentColor"/>
<rect x="16" y="18" width="1" height="1" fill="currentColor"/>
<rect x="15" y="19" width="1" height="1" fill="currentColor"/>
<rect x="14" y="20" width="1" height="1" fill="currentColor"/>
<rect x="13" y="21" width="1" height="1" fill="currentColor"/>
<rect x="2" y="3" width="1" height="8" fill="currentColor"/>
<rect x="5" y="5" width="4" height="1" fill="currentColor"/>
<rect x="5" y="8" width="4" height="1" fill="currentColor"/>
<rect x="5" y="6" width="1" height="2" fill="currentColor"/>
<rect x="8" y="6" width="1" height="2" fill="currentColor"/>
</svg>
