<svg width="24" height="24" viewBox="0 0 24 24" fill="none" xmlns="http://www.w3.org/2000/svg">
<rect x="3" y="16" width="18" height="2" fill="black"/>
<rect x="3" y="20" width="18" height="2" fill="black"/>
<rect x="3" y="8" width="18" height="2" fill="black"/>
<rect x="5" y="8" width="2" height="10" fill="black"/>
<rect x="9" y="8" width="2" height="10" fill="black"/>
<rect x="13" y="8" width="2" height="10" fill="black"/>
<rect x="17" y="8" width="2" height="10" fill="black"/>
<rect x="3" y="16" width="2" height="6" fill="black"/>
<rect x="19" y="16" width="2" height="6" fill="black"/>
<rect x="3" y="6" width="2" height="2" fill="black"/>
<rect x="5" y="4" width="2" height="2" fill="black"/>
<rect width="2" height="2" transform="matrix(-1 0 0 1 21 6)" fill="black"/>
<rect width="2" height="2" transform="matrix(-1 0 0 1 19 4)" fill="black"/>
<rect x="7" y="2" width="10" height="2" fill="black"/>
</svg>
