<svg width="24" height="24" viewBox="0 0 24 24" fill="none" xmlns="http://www.w3.org/2000/svg">
<rect x="7" y="3" width="10" height="2" fill="black"/>
<rect x="7" y="19" width="10" height="2" fill="black"/>
<rect x="3" y="7" width="2" height="10" fill="black"/>
<rect x="19" y="7" width="2" height="10" fill="black"/>
<rect x="5" y="5" width="2" height="2" fill="black"/>
<rect x="17" y="5" width="2" height="2" fill="black"/>
<rect x="5" y="17" width="2" height="2" fill="black"/>
<rect x="17" y="17" width="2" height="2" fill="black"/>
<rect x="7" y="12" width="2" height="2" fill="black"/>
<rect x="9" y="14" width="2" height="2" fill="black"/>
<rect width="2" height="2" transform="matrix(-1 0 0 1 17 8)" fill="black"/>
<rect width="2" height="2" transform="matrix(-1 0 0 1 15 10)" fill="black"/>
<rect width="2" height="2" transform="matrix(-1 0 0 1 13 12)" fill="black"/>
</svg>
