<svg width="24" height="24" viewBox="0 0 24 24" fill="none" xmlns="http://www.w3.org/2000/svg">
<rect x="9" y="2" width="6" height="2" fill="black"/>
<rect x="9" y="2" width="2" height="6" fill="black"/>
<rect x="13" y="2" width="2" height="6" fill="black"/>
<rect x="11" y="8" width="2" height="2" fill="black"/>
<rect width="6" height="2" transform="matrix(1 0 0 -1 9 22)" fill="black"/>
<rect width="2" height="6" transform="matrix(1 0 0 -1 9 22)" fill="black"/>
<rect width="2" height="6" transform="matrix(1 0 0 -1 13 22)" fill="black"/>
<rect width="2" height="2" transform="matrix(1 0 0 -1 11 16)" fill="black"/>
<rect x="22" y="9" width="6" height="2" transform="rotate(90 22 9)" fill="black"/>
<rect x="22" y="9" width="2" height="6" transform="rotate(90 22 9)" fill="black"/>
<rect x="22" y="13" width="2" height="6" transform="rotate(90 22 13)" fill="black"/>
<rect x="16" y="11" width="2" height="2" transform="rotate(90 16 11)" fill="black"/>
<rect width="6" height="2" transform="matrix(-4.37114e-08 1 1 4.37114e-08 2 9)" fill="black"/>
<rect width="2" height="6" transform="matrix(-4.37114e-08 1 1 4.37114e-08 2 9)" fill="black"/>
<rect width="2" height="6" transform="matrix(-4.37114e-08 1 1 4.37114e-08 2 13)" fill="black"/>
<rect width="2" height="2" transform="matrix(-4.37114e-08 1 1 4.37114e-08 8 11)" fill="black"/>
</svg>
