<svg width="24" height="24" viewBox="0 0 24 24" fill="none" xmlns="http://www.w3.org/2000/svg">
<rect x="6" y="13" width="2" height="6" fill="black"/>
<rect x="2" y="7" width="2" height="12" fill="black"/>
<rect x="2" y="13" width="6" height="2" fill="black"/>
<rect x="4" y="19" width="4" height="2" fill="black"/>
<rect width="2" height="6" transform="matrix(-1 0 0 1 18 13)" fill="black"/>
<rect width="2" height="12" transform="matrix(-1 0 0 1 22 7)" fill="black"/>
<rect width="6" height="2" transform="matrix(-1 0 0 1 22 13)" fill="black"/>
<rect width="4" height="2" transform="matrix(-1 0 0 1 20 19)" fill="black"/>
<rect x="4" y="5" width="2" height="2" fill="black"/>
<rect x="6" y="3" width="12" height="2" fill="black"/>
<rect x="18" y="5" width="2" height="2" fill="black"/>
</svg>
