<svg width="24" height="24" viewBox="0 0 24 24" fill="none" xmlns="http://www.w3.org/2000/svg">
<rect x="17" y="5" width="2" height="2" fill="black"/>
<rect x="15" y="3" width="2" height="6" fill="black"/>
<rect x="13" y="1" width="2" height="10" fill="black"/>
<rect width="2" height="2" transform="matrix(-1 0 0 1 7 17)" fill="black"/>
<rect width="2" height="8" transform="matrix(-1 0 0 1 5 5)" fill="black"/>
<rect width="2" height="6" transform="matrix(-1 0 0 1 9 15)" fill="black"/>
<rect width="2" height="10" transform="matrix(-1 0 0 1 11 13)" fill="black"/>
<rect x="5" y="5" width="9" height="2" fill="black"/>
<rect width="2" height="8" transform="matrix(1 0 0 -1 19 19)" fill="black"/>
<rect x="19" y="19" width="9" height="2" transform="rotate(-180 19 19)" fill="black"/>
</svg>
