<svg width="24" height="24" viewBox="0 0 24 24" fill="none" xmlns="http://www.w3.org/2000/svg">
<rect x="4" y="13" width="2" height="9" fill="black"/>
<rect x="18" y="13" width="2" height="9" fill="black"/>
<rect x="4" y="20" width="7" height="2" fill="black"/>
<rect x="13" y="20" width="7" height="2" fill="black"/>
<rect x="9" y="15" width="2" height="7" fill="black"/>
<rect x="9" y="15" width="6" height="2" fill="black"/>
<rect x="13" y="15" width="2" height="7" fill="black"/>
<rect x="2" y="8" width="2" height="3" fill="black"/>
<rect x="4" y="11" width="4" height="2" fill="black"/>
<rect x="8" y="8" width="2" height="3" fill="black"/>
<rect x="10" y="11" width="4" height="2" fill="black"/>
<rect x="14" y="8" width="2" height="3" fill="black"/>
<rect x="16" y="11" width="4" height="2" fill="black"/>
<rect x="20" y="8" width="2" height="3" fill="black"/>
<rect x="2" y="6" width="20" height="2" fill="black"/>
<rect x="4" y="4" width="2" height="2" fill="black"/>
<rect x="18" y="4" width="2" height="2" fill="black"/>
<rect x="6" y="2" width="12" height="2" fill="black"/>
</svg>
