<svg width="24" height="24" viewBox="0 0 24 24" fill="none" xmlns="http://www.w3.org/2000/svg">
<path d="M12 9H22V11H12V9Z" fill="black"/>
<path d="M2 13H12V15H2V13Z" fill="black"/>
<path d="M2 11H4V13H2V11Z" fill="black"/>
<path d="M4 9H6V11H4V9Z" fill="black"/>
<path d="M6 7H8V9H6V7Z" fill="black"/>
<path d="M8 5H10V7H8V5Z" fill="black"/>
<path d="M10 3H12V5H10V3Z" fill="black"/>
<path d="M12 1H14V11H12V1Z" fill="black"/>
<path d="M22 13H20V11H22V13Z" fill="black"/>
<path d="M20 15H18V13H20V15Z" fill="black"/>
<path d="M18 17H16V15H18V17Z" fill="black"/>
<path d="M16 19H14V17H16V19Z" fill="black"/>
<path d="M14 21H12V19H14V21Z" fill="black"/>
<path d="M12 23H10V13H12V23Z" fill="black"/>
</svg>
